<svg xmlns="http://www.w3.org/2000/svg" viewBox="0 0 600 286"><g><text x="50%" y="0" style="fill: rgb(54, 58, 61); dominant-baseline: text-before-edge; text-anchor: middle; font-weight: bold; font-size: 13px; font-family: sans-serif;">val_loss</text><svg viewBox="0 0 1024 1024" x="37.550018310546875" y="21.399993896484375" height="11" width="11"><path d="M128 533.333h768c23.564 0 42.667-19.103 42.667-42.667v-85.333c0-23.564-19.103-42.667-42.667-42.667h-768c-23.564 0-42.667 19.103-42.667 42.667v85.333c0 23.564 19.103 42.667 42.667 42.667z" style="fill: rgb(83, 135, 221);"/></svg><text x="56.550018310546875" y="19.399993896484375" style="fill: rgb(83, 135, 221); dominant-baseline: text-before-edge; font-size: 11px; font-family: sans-serif;"> treasured-sweep-49</text><svg viewBox="0 0 1024 1024" x="187.60000610351562" y="21.399993896484375" height="11" width="11"><path d="M128 533.333h768c23.564 0 42.667-19.103 42.667-42.667v-85.333c0-23.564-19.103-42.667-42.667-42.667h-768c-23.564 0-42.667 19.103-42.667 42.667v85.333c0 23.564 19.103 42.667 42.667 42.667z" style="fill: rgb(161, 169, 173);"/></svg><text x="206.60000610351562" y="19.399993896484375" style="fill: rgb(161, 169, 173); dominant-baseline: text-before-edge; font-size: 11px; font-family: sans-serif;"> restful-sweep-48</text><svg viewBox="0 0 1024 1024" x="325.4499816894531" y="21.399993896484375" height="11" width="11"><path d="M128 533.333h768c23.564 0 42.667-19.103 42.667-42.667v-85.333c0-23.564-19.103-42.667-42.667-42.667h-768c-23.564 0-42.667 19.103-42.667 42.667v85.333c0 23.564 19.103 42.667 42.667 42.667z" style="fill: rgb(161, 40, 100);"/></svg><text x="344.4499816894531" y="19.399993896484375" style="fill: rgb(161, 40, 100); dominant-baseline: text-before-edge; font-size: 11px; font-family: sans-serif;"> stoic-sweep-47</text><svg viewBox="0 0 1024 1024" x="451.1000061035156" y="21.399993896484375" height="11" width="11"><path d="M128 533.333h768c23.564 0 42.667-19.103 42.667-42.667v-85.333c0-23.564-19.103-42.667-42.667-42.667h-768c-23.564 0-42.667 19.103-42.667 42.667v85.333c0 23.564 19.103 42.667 42.667 42.667z" style="fill: rgb(164, 103, 80);"/></svg><text x="470.1000061035156" y="19.399993896484375" style="fill: rgb(164, 103, 80); dominant-baseline: text-before-edge; font-size: 11px; font-family: sans-serif;"> still-sweep-46</text><svg viewBox="0 0 1024 1024" x="46.699981689453125" y="35" height="11" width="11"><path d="M128 533.333h768c23.564 0 42.667-19.103 42.667-42.667v-85.333c0-23.564-19.103-42.667-42.667-42.667h-768c-23.564 0-42.667 19.103-42.667 42.667v85.333c0 23.564 19.103 42.667 42.667 42.667z" style="fill: rgb(160, 199, 92);"/></svg><text x="65.69998168945312" y="33" style="fill: rgb(160, 199, 92); dominant-baseline: text-before-edge; font-size: 11px; font-family: sans-serif;"> laced-sweep-45</text><svg viewBox="0 0 1024 1024" x="172.35000610351562" y="35" height="11" width="11"><path d="M128 533.333h768c23.564 0 42.667-19.103 42.667-42.667v-85.333c0-23.564-19.103-42.667-42.667-42.667h-768c-23.564 0-42.667 19.103-42.667 42.667v85.333c0 23.564 19.103 42.667 42.667 42.667z" style="fill: rgb(240, 184, 153);"/></svg><text x="191.35000610351562" y="33" style="fill: rgb(240, 184, 153); dominant-baseline: text-before-edge; font-size: 11px; font-family: sans-serif;"> peachy-sweep-44</text><svg viewBox="0 0 1024 1024" x="304.1000061035156" y="35" height="11" width="11"><path d="M128 533.333h768c23.564 0 42.667-19.103 42.667-42.667v-85.333c0-23.564-19.103-42.667-42.667-42.667h-768c-23.564 0-42.667 19.103-42.667 42.667v85.333c0 23.564 19.103 42.667 42.667 42.667z" style="fill: rgb(34, 148, 135);"/></svg><text x="323.1000061035156" y="33" style="fill: rgb(34, 148, 135); dominant-baseline: text-before-edge; font-size: 11px; font-family: sans-serif;"> northern-sweep-43</text><svg viewBox="0 0 1024 1024" x="448.0500183105469" y="35" height="11" width="11"><path d="M128 533.333h768c23.564 0 42.667-19.103 42.667-42.667v-85.333c0-23.564-19.103-42.667-42.667-42.667h-768c-23.564 0-42.667 19.103-42.667 42.667v85.333c0 23.564 19.103 42.667 42.667 42.667z" style="fill: rgb(91, 197, 219);"/></svg><text x="467.0500183105469" y="33" style="fill: rgb(91, 197, 219); dominant-baseline: text-before-edge; font-size: 11px; font-family: sans-serif;"> dark-sweep-42</text><svg viewBox="0 0 1024 1024" x="181.50003051757812" y="48.600006103515625" height="11" width="11"><path d="M128 533.333h768c23.564 0 42.667-19.103 42.667-42.667v-85.333c0-23.564-19.103-42.667-42.667-42.667h-768c-23.564 0-42.667 19.103-42.667 42.667v85.333c0 23.564 19.103 42.667 42.667 42.667z" style="fill: rgb(237, 183, 50);"/></svg><text x="200.50003051757812" y="46.600006103515625" style="fill: rgb(237, 183, 50); dominant-baseline: text-before-edge; font-size: 11px; font-family: sans-serif;"> dulcet-sweep-41</text><svg viewBox="0 0 1024 1024" x="313.2500305175781" y="48.600006103515625" height="11" width="11"><path d="M128 533.333h768c23.564 0 42.667-19.103 42.667-42.667v-85.333c0-23.564-19.103-42.667-42.667-42.667h-768c-23.564 0-42.667 19.103-42.667 42.667v85.333c0 23.564 19.103 42.667 42.667 42.667z" style="fill: rgb(197, 101, 199);"/></svg><text x="332.2500305175781" y="46.600006103515625" style="fill: rgb(197, 101, 199); dominant-baseline: text-before-edge; font-size: 11px; font-family: sans-serif;"> deep-sweep-40</text></g><g transform="translate(0, 59.399993896484375)"><svg class="rv-xy-plot__inner" width="600" height="226"><g transform="translate(40,5)" class="rv-xy-plot__grid-lines"><line y1="191" y2="191" x1="0" x2="540" class="rv-xy-plot__grid-lines__line" style="stroke-width: 0.5;"/><line y1="165.53333333333333" y2="165.53333333333333" x1="0" x2="540" class="rv-xy-plot__grid-lines__line" style="stroke-width: 0.5;"/><line y1="140.0666666666667" y2="140.0666666666667" x1="0" x2="540" class="rv-xy-plot__grid-lines__line" style="stroke-width: 0.5;"/><line y1="114.6" y2="114.6" x1="0" x2="540" class="rv-xy-plot__grid-lines__line" style="stroke-width: 0.5;"/><line y1="89.13333333333334" y2="89.13333333333334" x1="0" x2="540" class="rv-xy-plot__grid-lines__line" style="stroke-width: 0.5;"/><line y1="63.66666666666665" y2="63.66666666666665" x1="0" x2="540" class="rv-xy-plot__grid-lines__line" style="stroke-width: 0.5;"/><line y1="38.19999999999999" y2="38.19999999999999" x1="0" x2="540" class="rv-xy-plot__grid-lines__line" style="stroke-width: 0.5;"/><line y1="12.73333333333331" y2="12.73333333333331" x1="0" x2="540" class="rv-xy-plot__grid-lines__line" style="stroke-width: 0.5;"/></g><path d="M0,34.910598158836365L27,138.78567108015218L54,160.86447270959616L81,171.71121954048675L108,175.11651650443673L135,177.1189066742857L162,178.88552055756253L189,179.66170066098374L216,180.34135572984815L243,181.14908627917367L270,180.59800594796735L297,181.29509647749364L324,181.18753619864583L351,180.94822123398382L378,181.47662805455428L405,181.56823344901204L432,181.6193640269339L459,181.90993408734602L486,181.6113806553185L513,181.8297748460124" class="rv-xy-plot__series rv-xy-plot__series--line" transform="translate(40,5)" style="opacity: 1; stroke-width: 1.5; stroke: rgb(197, 101, 199);"/><path d="M0,21.30069043238957L27,56.029533356428146L54,143.13451671103635L81,161.7434831932187L108,171.96494181081653L135,178.06619324783486L162,180.6094260116418L189,182.0179272138824L216,182.8701230796675L243,184.25188437476754L270,185.47085343301296L297,186.09881107136607L324,186.85425302696723L351,185.27911495169002L378,187.20476122635108L405,186.5700787358607L432,186.58766687909764L459,187.11675232183188L486,187.0616454745953L513,186.72802871155244" class="rv-xy-plot__series rv-xy-plot__series--line" transform="translate(40,5)" style="opacity: 1; stroke-width: 1.5; stroke: rgb(237, 183, 50);"/><path d="M0,61.16216297944386L27,83.1120518942674L54,94.03713704148927L81,97.08503937721252L108,98.35565250118573L135,98.8025505443414L162,99.1347973148028L189,99.40481837590535L216,99.63314375281334L243,99.78866533438364L270,100.00220985213915L297,100.11567524075508L324,100.29778908689816L351,100.38730910420418L378,100.53828637798627L405,100.65868681669235L432,100.75885132948557L459,100.85772560040155L486,100.98930181066194L513,101.08153513073921" class="rv-xy-plot__series rv-xy-plot__series--line" transform="translate(40,5)" style="opacity: 1; stroke-width: 1.5; stroke: rgb(91, 197, 219);"/><path d="M0,89.28748156627019L27,96.55229281385739L54,98.35937143365541L81,99.03454741835594L108,99.60471099615097L135,100.07076343894005L162,100.43508600195248L189,100.7493547697862L216,101.05020881692568L243,101.251913468043L270,101.48903336127599L297,101.71965460975964L324,101.8959433933099L351,102.05648363629976L378,102.18768036365509L405,102.3427465657393L432,102.43671602010727L459,102.57794058322906L486,102.6683239241441L513,102.72541712721188" class="rv-xy-plot__series rv-xy-plot__series--line" transform="translate(40,5)" style="opacity: 1; stroke-width: 1.5; stroke: rgb(34, 148, 135);"/><path d="M0,88.62158393859863L27,96.44789706667264L54,98.44101718068123L81,99.49367429812749L108,100.14795026183128L135,100.53715741634369L162,100.83386561274529L189,101.07273112734158L216,101.21551157037416L243,101.37776897350946L270,101.54791962107022L297,101.68707600235939L324,101.80715388059616L351,101.95428888996442L378,102.09133914113045L405,102.19334414601326L432,102.30162959297498L459,102.26289387543996L486,102.46604056159654L513,102.57611906528473" class="rv-xy-plot__series rv-xy-plot__series--line" transform="translate(40,5)" style="opacity: 1; stroke-width: 1.5; stroke: rgb(240, 184, 153);"/><path d="M0,82.8675890068213L27,95.16691457231839L54,115.86571001509824L81,135.2588186264038L108,100.27104502916336L135,100.69479461510976L162,100.97488146026929L189,101.20481963952382L216,101.41344036658604L243,101.56813657283783L270,101.7274055480957L297,101.88731015721956L324,102.04346737265587L351,102.20846653978029L378,102.32070809602737L405,102.47979681690533L432,102.57244756817818L459,102.7220207552115L486,102.81515534718831L513,102.91023478905359" class="rv-xy-plot__series rv-xy-plot__series--line" transform="translate(40,5)" style="opacity: 1; stroke-width: 1.5; stroke: rgb(160, 199, 92);"/><path d="M0,95.27061776320139L27,99.86267398794492L54,100.43972518046697L81,101.03126313289006L108,101.23289188742638L135,101.4336762924989L162,101.7344259818395L189,101.9241010248661L216,102.15863094727197L243,102.18343964219093L270,102.4058355987072L297,102.67420590917268L324,102.7724160850048L351,102.90722738703091L378,102.92182799180348L405,103.08956892291704L432,103.20191483696301L459,103.28710874915123L486,103.16578806440035L513,103.40134259064992" class="rv-xy-plot__series rv-xy-plot__series--line" transform="translate(40,5)" style="opacity: 1; stroke-width: 1.5; stroke: rgb(164, 103, 80);"/><path d="M0,16.790517131487515L27,16.790517131487515L54,16.790517131487515L81,16.790517131487515L108,16.790517131487515L135,16.790517131487515L162,16.790517131487515L189,16.790517131487515L216,16.790517131487515L243,16.790517131487515L270,16.790517131487515L297,16.790517131487515L324,16.790517131487515L351,16.790517131487515L378,16.790517131487515L405,16.790517131487515L432,16.790517131487515L459,16.790517131487515L486,16.790517131487515L513,16.790517131487515" class="rv-xy-plot__series rv-xy-plot__series--line" transform="translate(40,5)" style="opacity: 1; stroke-width: 1.5; stroke: rgb(161, 40, 100);"/><path d="M0,129.09917069971561L27,145.1419480741024L54,132.72432345648605L81,181.74435976644355L108,179.2727532150845L135,180.98680990189314L162,184.3877161300431L189,178.8804817361136L216,100.65118254224458L243,100.98290752371152L270,101.1562268535296L297,101.27281348903973L324,101.39298623800278L351,101.51781713962555L378,101.62201365828514L405,101.70081328352292L432,101.79375813404718L459,101.90289741754532L486,101.9627608458201L513,102.05437750617662" class="rv-xy-plot__series rv-xy-plot__series--line" transform="translate(40,5)" style="opacity: 1; stroke-width: 1.5; stroke: rgb(161, 169, 173);"/><path d="M0,76.00104506810506L27,96.5770161251227L54,99.54325373967488L81,100.50930337111154L108,100.96103982130685L135,101.28324926892915L162,101.48163344462712L189,101.64778054753938L216,101.81005692481995L243,101.92488845189412L270,102.04846705993016L297,102.14809080958366L324,102.20077252388L351,102.35290722052255L378,102.48548906048138L405,102.53594131271043L432,102.65640816092491L459,102.71349187692006L486,102.82273551821709L513,102.89184884230295" class="rv-xy-plot__series rv-xy-plot__series--line" transform="translate(40,5)" style="opacity: 1; stroke-width: 1.5; stroke: rgb(83, 135, 221);"/><g class="rv-xy-plot__series rv-xy-plot__series--mark" transform="translate(40,5)"><circle r="2" cx="513" cy="102.89184884230295" style="opacity: 1; stroke: rgb(83, 135, 221); fill: rgb(83, 135, 221); stroke-width: 1;"/></g><g class="rv-xy-plot__series rv-xy-plot__series--mark" transform="translate(40,5)"><circle r="2" cx="513" cy="102.05437750617662" style="opacity: 1; stroke: rgb(161, 169, 173); fill: rgb(161, 169, 173); stroke-width: 1;"/></g><g class="rv-xy-plot__series rv-xy-plot__series--mark" transform="translate(40,5)"><circle r="2" cx="513" cy="16.790517131487515" style="opacity: 1; stroke: rgb(161, 40, 100); fill: rgb(161, 40, 100); stroke-width: 1;"/></g><g class="rv-xy-plot__series rv-xy-plot__series--mark" transform="translate(40,5)"><circle r="2" cx="513" cy="103.40134259064992" style="opacity: 1; stroke: rgb(164, 103, 80); fill: rgb(164, 103, 80); stroke-width: 1;"/></g><g class="rv-xy-plot__series rv-xy-plot__series--mark" transform="translate(40,5)"><circle r="2" cx="513" cy="102.91023478905359" style="opacity: 1; stroke: rgb(160, 199, 92); fill: rgb(160, 199, 92); stroke-width: 1;"/></g><g class="rv-xy-plot__series rv-xy-plot__series--mark" transform="translate(40,5)"><circle r="2" cx="513" cy="102.57611906528473" style="opacity: 1; stroke: rgb(240, 184, 153); fill: rgb(240, 184, 153); stroke-width: 1;"/></g><g class="rv-xy-plot__series rv-xy-plot__series--mark" transform="translate(40,5)"><circle r="2" cx="513" cy="102.72541712721188" style="opacity: 1; stroke: rgb(34, 148, 135); fill: rgb(34, 148, 135); stroke-width: 1;"/></g><g class="rv-xy-plot__series rv-xy-plot__series--mark" transform="translate(40,5)"><circle r="2" cx="513" cy="101.08153513073921" style="opacity: 1; stroke: rgb(91, 197, 219); fill: rgb(91, 197, 219); stroke-width: 1;"/></g><g class="rv-xy-plot__series rv-xy-plot__series--mark" transform="translate(40,5)"><circle r="2" cx="513" cy="186.72802871155244" style="opacity: 1; stroke: rgb(237, 183, 50); fill: rgb(237, 183, 50); stroke-width: 1;"/></g><g class="rv-xy-plot__series rv-xy-plot__series--mark" transform="translate(40,5)"><circle r="2" cx="513" cy="181.8297748460124" style="opacity: 1; stroke: rgb(197, 101, 199); fill: rgb(197, 101, 199); stroke-width: 1;"/></g><defs class="rv-gradient-defs"><linearGradient id="leftFadeGradient" x1="0" x2="1" y1="0" y2="0"><stop offset="0%" stop-color="white" stop-opacity="1"/><stop offset="60%" stop-color="white" stop-opacity="1"/><stop offset="100%" stop-color="white" stop-opacity="0"/></linearGradient><linearGradient id="rightFadeGradient" x1="1" x2="0" y1="0" y2="0"><stop offset="0%" stop-color="white" stop-opacity="1"/><stop offset="100%" stop-color="white" stop-opacity="0"/></linearGradient><linearGradient id="bottomFadeGradient" x1="0" x2="0" y1="1" y2="0"><stop offset="0%" stop-color="white" stop-opacity="1"/><stop offset="40%" stop-color="white" stop-opacity="1"/><stop offset="100%" stop-color="white" stop-opacity="0"/></linearGradient><linearGradient id="topFadeGradient" x1="0" x2="0" y1="0" y2="1"><stop offset="0%" stop-color="white" stop-opacity="1"/><stop offset="100%" stop-color="white" stop-opacity="0"/></linearGradient></defs><g class="rv-xy-plot__borders plot-border"><rect class="rv-xy-plot__borders-bottom plot-border-bottom" x="0" y="196" width="600" height="30" style="fill: url(&quot;#bottomFadeGradient&quot;); opacity: 1;"/><rect class="rv-xy-plot__borders-left plot-border-left" x="0" y="0" width="40" height="226" style="fill: url(&quot;#leftFadeGradient&quot;); opacity: 1;"/><rect class="rv-xy-plot__borders-right plot-border-right" x="580" y="0" width="20" height="226" style="fill: url(&quot;#rightFadeGradient&quot;); opacity: 1;"/><rect class="rv-xy-plot__borders-top plot-border-top" x="0" y="0" width="600" height="5" style="fill: url(&quot;#topFadeGradient&quot;); opacity: 1;"/></g><g transform="translate(40,196)" class="rv-xy-plot__axis rv-xy-plot__axis--horizontal"><line x1="0" x2="540" y1="0" y2="0" class="rv-xy-plot__axis__line"/><g transform="translate(0, 0)" class="rv-xy-plot__axis__ticks"/></g><g transform="translate(40,196)" class="rv-xy-plot__axis rv-xy-plot__axis--horizontal" style="font-family: &quot;Source Sans Pro&quot;; fill: rgb(107, 107, 118); font-size: 11px;"><line x1="0" x2="540" y1="0" y2="0" class="rv-xy-plot__axis__line" style="font-family: &quot;Source Sans Pro&quot;; fill: rgb(107, 107, 118); font-size: 11px; stroke-width: 0;"/><g transform="translate(0, 0)" class="rv-xy-plot__axis__ticks"><g transform="translate(0, 0)" class="rv-xy-plot__axis__tick" style="font-family: &quot;Source Sans Pro&quot;; fill: rgb(107, 107, 118); font-size: 11px;"><line x1="0" x2="0" y1="-6" y2="6" class="rv-xy-plot__axis__tick__line" style="font-family: &quot;Source Sans Pro&quot;; fill: rgb(107, 107, 118); font-size: 11px; stroke-width: 0;"/><text text-anchor="middle" dy="0.72em" transform="translate(0, 14)" class="rv-xy-plot__axis__tick__text" style="font-family: sans-serif; fill: rgb(107, 107, 118); font-size: 11px;">0</text></g><g transform="translate(135, 0)" class="rv-xy-plot__axis__tick" style="font-family: &quot;Source Sans Pro&quot;; fill: rgb(107, 107, 118); font-size: 11px;"><line x1="0" x2="0" y1="-6" y2="6" class="rv-xy-plot__axis__tick__line" style="font-family: &quot;Source Sans Pro&quot;; fill: rgb(107, 107, 118); font-size: 11px; stroke-width: 0;"/><text text-anchor="middle" dy="0.72em" transform="translate(0, 14)" class="rv-xy-plot__axis__tick__text" style="font-family: sans-serif; fill: rgb(107, 107, 118); font-size: 11px;">5</text></g><g transform="translate(270, 0)" class="rv-xy-plot__axis__tick" style="font-family: &quot;Source Sans Pro&quot;; fill: rgb(107, 107, 118); font-size: 11px;"><line x1="0" x2="0" y1="-6" y2="6" class="rv-xy-plot__axis__tick__line" style="font-family: &quot;Source Sans Pro&quot;; fill: rgb(107, 107, 118); font-size: 11px; stroke-width: 0;"/><text text-anchor="middle" dy="0.72em" transform="translate(0, 14)" class="rv-xy-plot__axis__tick__text" style="font-family: sans-serif; fill: rgb(107, 107, 118); font-size: 11px;">10</text></g><g transform="translate(405, 0)" class="rv-xy-plot__axis__tick" style="font-family: &quot;Source Sans Pro&quot;; fill: rgb(107, 107, 118); font-size: 11px;"><line x1="0" x2="0" y1="-6" y2="6" class="rv-xy-plot__axis__tick__line" style="font-family: &quot;Source Sans Pro&quot;; fill: rgb(107, 107, 118); font-size: 11px; stroke-width: 0;"/><text text-anchor="middle" dy="0.72em" transform="translate(0, 14)" class="rv-xy-plot__axis__tick__text" style="font-family: sans-serif; fill: rgb(107, 107, 118); font-size: 11px;">15</text></g><g transform="translate(540, 0)" class="rv-xy-plot__axis__tick" style="font-family: &quot;Source Sans Pro&quot;; fill: rgb(107, 107, 118); font-size: 11px;"><line x1="0" x2="0" y1="-6" y2="6" class="rv-xy-plot__axis__tick__line" style="font-family: &quot;Source Sans Pro&quot;; fill: rgb(107, 107, 118); font-size: 11px; stroke-width: 0;"/><text text-anchor="middle" dy="0.72em" transform="translate(0, 14)" class="rv-xy-plot__axis__tick__text" style="font-family: sans-serif; fill: rgb(107, 107, 118); font-size: 11px;">20</text></g></g><g transform="translate(0, 0)" class="rv-xy-plot__axis__title"><g transform="translate(534, -6) rotate(0)" style="text-anchor: end; font-family: &quot;Source Sans Pro&quot;; fill: rgb(107, 107, 118); font-size: 11px;"><text style="font-family: sans-serif; fill: rgb(107, 107, 118); font-size: 11px;">Step</text></g></g></g><g transform="translate(40,196)" class="rv-xy-plot__axis rv-xy-plot__axis--horizontal"><line x1="0" x2="0" y1="0" y2="0" class="rv-xy-plot__axis__line"/><g transform="translate(0, 0)" class="rv-xy-plot__axis__ticks"><g transform="translate(0, 0)" class="rv-xy-plot__axis__tick"><line x1="0" x2="0" y1="-6" y2="6" class="rv-xy-plot__axis__tick__line"/><text text-anchor="middle" dy="0.72em" transform="translate(0, 14)" class="rv-xy-plot__axis__tick__text" style="font-family: sans-serif;"/></g><g transform="translate(135, 0)" class="rv-xy-plot__axis__tick"><line x1="0" x2="0" y1="-6" y2="6" class="rv-xy-plot__axis__tick__line"/><text text-anchor="middle" dy="0.72em" transform="translate(0, 14)" class="rv-xy-plot__axis__tick__text" style="font-family: sans-serif;"/></g><g transform="translate(270, 0)" class="rv-xy-plot__axis__tick"><line x1="0" x2="0" y1="-6" y2="6" class="rv-xy-plot__axis__tick__line"/><text text-anchor="middle" dy="0.72em" transform="translate(0, 14)" class="rv-xy-plot__axis__tick__text" style="font-family: sans-serif;"/></g><g transform="translate(405, 0)" class="rv-xy-plot__axis__tick"><line x1="0" x2="0" y1="-6" y2="6" class="rv-xy-plot__axis__tick__line"/><text text-anchor="middle" dy="0.72em" transform="translate(0, 14)" class="rv-xy-plot__axis__tick__text" style="font-family: sans-serif;"/></g><g transform="translate(540, 0)" class="rv-xy-plot__axis__tick"><line x1="0" x2="0" y1="-6" y2="6" class="rv-xy-plot__axis__tick__line"/><text text-anchor="middle" dy="0.72em" transform="translate(0, 14)" class="rv-xy-plot__axis__tick__text" style="font-family: sans-serif;"/></g></g></g><g transform="translate(0,5)" class="rv-xy-plot__axis rv-xy-plot__axis--vertical" style="font-family: &quot;Source Sans Pro&quot;; fill: rgb(107, 107, 118); font-size: 11px;"><line x1="40" x2="40" y1="0" y2="191" class="rv-xy-plot__axis__line" style="font-family: &quot;Source Sans Pro&quot;; fill: rgb(107, 107, 118); font-size: 11px; stroke: none;"/><g transform="translate(40, 0)" class="rv-xy-plot__axis__ticks"><g transform="translate(0, 191)" class="rv-xy-plot__axis__tick" style="font-family: &quot;Source Sans Pro&quot;; fill: rgb(107, 107, 118); font-size: 11px;"><line y1="0" y2="0" x1="6" x2="-6" class="rv-xy-plot__axis__tick__line" style="font-family: &quot;Source Sans Pro&quot;; fill: rgb(107, 107, 118); font-size: 11px; stroke: none;"/><text text-anchor="end" dy="0.32em" transform="translate(-14, 0)" class="rv-xy-plot__axis__tick__text" style="font-family: sans-serif; fill: rgb(107, 107, 118); font-size: 11px;">0</text></g><g transform="translate(0, 165.53333333333333)" class="rv-xy-plot__axis__tick" style="font-family: &quot;Source Sans Pro&quot;; fill: rgb(107, 107, 118); font-size: 11px;"><line y1="0" y2="0" x1="6" x2="-6" class="rv-xy-plot__axis__tick__line" style="font-family: &quot;Source Sans Pro&quot;; fill: rgb(107, 107, 118); font-size: 11px; stroke: none;"/><text text-anchor="end" dy="0.32em" transform="translate(-14, 0)" class="rv-xy-plot__axis__tick__text" style="font-family: sans-serif; fill: rgb(107, 107, 118); font-size: 11px;">0.02</text></g><g transform="translate(0, 140.0666666666667)" class="rv-xy-plot__axis__tick" style="font-family: &quot;Source Sans Pro&quot;; fill: rgb(107, 107, 118); font-size: 11px;"><line y1="0" y2="0" x1="6" x2="-6" class="rv-xy-plot__axis__tick__line" style="font-family: &quot;Source Sans Pro&quot;; fill: rgb(107, 107, 118); font-size: 11px; stroke: none;"/><text text-anchor="end" dy="0.32em" transform="translate(-14, 0)" class="rv-xy-plot__axis__tick__text" style="font-family: sans-serif; fill: rgb(107, 107, 118); font-size: 11px;">0.04</text></g><g transform="translate(0, 114.6)" class="rv-xy-plot__axis__tick" style="font-family: &quot;Source Sans Pro&quot;; fill: rgb(107, 107, 118); font-size: 11px;"><line y1="0" y2="0" x1="6" x2="-6" class="rv-xy-plot__axis__tick__line" style="font-family: &quot;Source Sans Pro&quot;; fill: rgb(107, 107, 118); font-size: 11px; stroke: none;"/><text text-anchor="end" dy="0.32em" transform="translate(-14, 0)" class="rv-xy-plot__axis__tick__text" style="font-family: sans-serif; fill: rgb(107, 107, 118); font-size: 11px;">0.06</text></g><g transform="translate(0, 89.13333333333334)" class="rv-xy-plot__axis__tick" style="font-family: &quot;Source Sans Pro&quot;; fill: rgb(107, 107, 118); font-size: 11px;"><line y1="0" y2="0" x1="6" x2="-6" class="rv-xy-plot__axis__tick__line" style="font-family: &quot;Source Sans Pro&quot;; fill: rgb(107, 107, 118); font-size: 11px; stroke: none;"/><text text-anchor="end" dy="0.32em" transform="translate(-14, 0)" class="rv-xy-plot__axis__tick__text" style="font-family: sans-serif; fill: rgb(107, 107, 118); font-size: 11px;">0.08</text></g><g transform="translate(0, 63.66666666666665)" class="rv-xy-plot__axis__tick" style="font-family: &quot;Source Sans Pro&quot;; fill: rgb(107, 107, 118); font-size: 11px;"><line y1="0" y2="0" x1="6" x2="-6" class="rv-xy-plot__axis__tick__line" style="font-family: &quot;Source Sans Pro&quot;; fill: rgb(107, 107, 118); font-size: 11px; stroke: none;"/><text text-anchor="end" dy="0.32em" transform="translate(-14, 0)" class="rv-xy-plot__axis__tick__text" style="font-family: sans-serif; fill: rgb(107, 107, 118); font-size: 11px;">0.1</text></g><g transform="translate(0, 38.19999999999999)" class="rv-xy-plot__axis__tick" style="font-family: &quot;Source Sans Pro&quot;; fill: rgb(107, 107, 118); font-size: 11px;"><line y1="0" y2="0" x1="6" x2="-6" class="rv-xy-plot__axis__tick__line" style="font-family: &quot;Source Sans Pro&quot;; fill: rgb(107, 107, 118); font-size: 11px; stroke: none;"/><text text-anchor="end" dy="0.32em" transform="translate(-14, 0)" class="rv-xy-plot__axis__tick__text" style="font-family: sans-serif; fill: rgb(107, 107, 118); font-size: 11px;">0.12</text></g><g transform="translate(0, 12.73333333333331)" class="rv-xy-plot__axis__tick" style="font-family: &quot;Source Sans Pro&quot;; fill: rgb(107, 107, 118); font-size: 11px;"><line y1="0" y2="0" x1="6" x2="-6" class="rv-xy-plot__axis__tick__line" style="font-family: &quot;Source Sans Pro&quot;; fill: rgb(107, 107, 118); font-size: 11px; stroke: none;"/><text text-anchor="end" dy="0.32em" transform="translate(-14, 0)" class="rv-xy-plot__axis__tick__text" style="font-family: sans-serif; fill: rgb(107, 107, 118); font-size: 11px;">0.14</text></g></g></g></svg></g><style xmlns="http://www.w3.org/1999/xhtml">/*&lt;![CDATA[*/<br />text { font-size: 10px; fill: black }<br />.react-vis-magic-css-import-rule{display:inherit}.rv-treemap{font-size:12px;position:relative}.rv-treemap__leaf{overflow:hidden;position:absolute}.rv-treemap__leaf--circle{align-items:center;border-radius:100%;display:flex;justify-content:center}.rv-treemap__leaf__content{overflow:hidden;padding:10px;text-overflow:ellipsis}.rv-xy-plot{color:#c3c3c3;position:relative}.rv-xy-plot canvas{pointer-events:none}.rv-xy-plot .rv-xy-canvas{pointer-events:none;position:absolute}.rv-xy-plot__inner{display:block}.rv-xy-plot__axis__line{fill:none;stroke-width:2px;stroke:#e6e6e9}.rv-xy-plot__axis__tick__line{stroke:#e6e6e9}.rv-xy-plot__axis__tick__text{fill:#6b6b76;font-size:11px}.rv-xy-plot__axis__title text{fill:#6b6b76;font-size:11px}.rv-xy-plot__grid-lines__line{stroke:#e6e6e9}.rv-xy-plot__circular-grid-lines__line{fill-opacity:0;stroke:#e6e6e9}.rv-xy-plot__series,.rv-xy-plot__series path{pointer-events:all}.rv-xy-plot__series--line{fill:none;stroke:#000;stroke-width:2px}.rv-crosshair{position:absolute;font-size:11px;pointer-events:none}.rv-crosshair__line{background:#47d3d9;width:1px}.rv-crosshair__inner{position:absolute;text-align:left;top:0}.rv-crosshair__inner__content{border-radius:4px;background:#3a3a48;color:#fff;font-size:12px;padding:7px 10px;box-shadow:0 2px 4px rgba(0,0,0,0.5)}.rv-crosshair__inner--left{right:4px}.rv-crosshair__inner--right{left:4px}.rv-crosshair__title{font-weight:bold;white-space:nowrap}.rv-crosshair__item{white-space:nowrap}.rv-hint{position:absolute;pointer-events:none}.rv-hint__content{border-radius:4px;padding:7px 10px;font-size:12px;background:#3a3a48;box-shadow:0 2px 4px rgba(0,0,0,0.5);color:#fff;text-align:left;white-space:nowrap}.rv-discrete-color-legend{box-sizing:border-box;overflow-y:auto;font-size:12px}.rv-discrete-color-legend.horizontal{white-space:nowrap}.rv-discrete-color-legend-item{color:#3a3a48;border-radius:1px;padding:9px 10px}.rv-discrete-color-legend-item.horizontal{display:inline-block}.rv-discrete-color-legend-item.horizontal .rv-discrete-color-legend-item__title{margin-left:0;display:block}.rv-discrete-color-legend-item__color{display:inline-block;vertical-align:middle;overflow:visible}.rv-discrete-color-legend-item__color__path{stroke:#dcdcdc;stroke-width:2px}.rv-discrete-color-legend-item__title{margin-left:10px}.rv-discrete-color-legend-item.disabled{color:#b8b8b8}.rv-discrete-color-legend-item.clickable{cursor:pointer}.rv-discrete-color-legend-item.clickable:hover{background:#f9f9f9}.rv-search-wrapper{display:flex;flex-direction:column}.rv-search-wrapper__form{flex:0}.rv-search-wrapper__form__input{width:100%;color:#a6a6a5;border:1px solid #e5e5e4;padding:7px 10px;font-size:12px;box-sizing:border-box;border-radius:2px;margin:0 0 9px;outline:0}.rv-search-wrapper__contents{flex:1;overflow:auto}.rv-continuous-color-legend{font-size:12px}.rv-continuous-color-legend .rv-gradient{height:4px;border-radius:2px;margin-bottom:5px}.rv-continuous-size-legend{font-size:12px}.rv-continuous-size-legend .rv-bubbles{text-align:justify;overflow:hidden;margin-bottom:5px;width:100%}.rv-continuous-size-legend .rv-bubble{background:#d8d9dc;display:inline-block;vertical-align:bottom}.rv-continuous-size-legend .rv-spacer{display:inline-block;font-size:0;line-height:0;width:100%}.rv-legend-titles{height:16px;position:relative}.rv-legend-titles__left,.rv-legend-titles__right,.rv-legend-titles__center{position:absolute;white-space:nowrap;overflow:hidden}.rv-legend-titles__center{display:block;text-align:center;width:100%}.rv-legend-titles__right{right:0}.rv-radial-chart .rv-xy-plot__series--label{pointer-events:none}<br /><br />/*]]&gt;*/</style></svg>