<svg xmlns="http://www.w3.org/2000/svg" viewBox="0 0 600 300"><g><text x="50%" y="0" style="fill: rgb(54, 58, 61); dominant-baseline: text-before-edge; text-anchor: middle; font-weight: bold; font-size: 13px; font-family: sans-serif;">val_loss, loss</text><svg viewBox="0 0 1024 1024" x="54.625030517578125" y="21.79998779296875" height="11" width="11"><path d="M128 533.333h768c23.564 0 42.667-19.103 42.667-42.667v-85.333c0-23.564-19.103-42.667-42.667-42.667h-768c-23.564 0-42.667 19.103-42.667 42.667v85.333c0 23.564 19.103 42.667 42.667 42.667z" style="fill: rgb(218, 76, 76);"/></svg><text x="73.62503051757812" y="19.79998779296875" style="fill: rgb(218, 76, 76); dominant-baseline: text-before-edge; font-size: 11px; font-family: sans-serif;"> smart-river-2 val_loss</text><svg viewBox="0 0 1024 1024" x="229.07498168945312" y="21.79998779296875" height="11" width="11"><path d="M128 533.333h768c23.564 0 42.667-19.103 42.667-42.667v-85.333c0-23.564-19.103-42.667-42.667-42.667h-768c-23.564 0-42.667 19.103-42.667 42.667v85.333c0 23.564 19.103 42.667 42.667 42.667z" style="fill: rgb(83, 135, 221);"/></svg><text x="248.07498168945312" y="19.79998779296875" style="fill: rgb(83, 135, 221); dominant-baseline: text-before-edge; font-size: 11px; font-family: sans-serif;"> fiery-forest-1 val_loss</text><svg viewBox="0 0 1024 1024" x="409.6250305175781" y="21.79998779296875" height="11" width="11"><path d="M128 533.333h298.667c23.564 0 42.667-19.103 42.667-42.667v-85.333c0-23.564-19.103-42.667-42.667-42.667h-298.667c-23.564 0-42.667 19.103-42.667 42.667v85.333c0 23.564 19.103 42.667 42.667 42.667zM597.333 533.333h298.667c23.564 0 42.667-19.103 42.667-42.667v-85.333c0-23.564-19.103-42.667-42.667-42.667h-298.667c-23.564 0-42.667 19.103-42.667 42.667v85.333c0 23.564 19.103 42.667 42.667 42.667z" style="fill: rgb(218, 76, 76);"/></svg><text x="428.6250305175781" y="19.79998779296875" style="fill: rgb(218, 76, 76); dominant-baseline: text-before-edge; font-size: 11px; font-family: sans-serif;"> smart-river-2 loss</text><svg viewBox="0 0 1024 1024" x="229.07498168945312" y="35.399993896484375" height="11" width="11"><path d="M128 533.333h298.667c23.564 0 42.667-19.103 42.667-42.667v-85.333c0-23.564-19.103-42.667-42.667-42.667h-298.667c-23.564 0-42.667 19.103-42.667 42.667v85.333c0 23.564 19.103 42.667 42.667 42.667zM597.333 533.333h298.667c23.564 0 42.667-19.103 42.667-42.667v-85.333c0-23.564-19.103-42.667-42.667-42.667h-298.667c-23.564 0-42.667 19.103-42.667 42.667v85.333c0 23.564 19.103 42.667 42.667 42.667z" style="fill: rgb(83, 135, 221);"/></svg><text x="248.07498168945312" y="33.399993896484375" style="fill: rgb(83, 135, 221); dominant-baseline: text-before-edge; font-size: 11px; font-family: sans-serif;"> fiery-forest-1 loss</text></g><g transform="translate(0, 46.199981689453125)"><svg class="rv-xy-plot__inner" width="600" height="254"><g transform="translate(40,5)" class="rv-xy-plot__grid-lines"><line y1="219" y2="219" x1="0" x2="540" class="rv-xy-plot__grid-lines__line" style="stroke-width: 0.5;"/><line y1="164.25" y2="164.25" x1="0" x2="540" class="rv-xy-plot__grid-lines__line" style="stroke-width: 0.5;"/><line y1="109.5" y2="109.5" x1="0" x2="540" class="rv-xy-plot__grid-lines__line" style="stroke-width: 0.5;"/><line y1="54.75000000000002" y2="54.75000000000002" x1="0" x2="540" class="rv-xy-plot__grid-lines__line" style="stroke-width: 0.5;"/><line y1="0" y2="0" x1="0" x2="540" class="rv-xy-plot__grid-lines__line" style="stroke-width: 0.5;"/></g><path d="M0,158.23749731853604L2.8421052631578947,176.78367010876536L5.684210526315789,192.42601234093308L8.526315789473685,203.07152788247913L11.368421052631579,209.03607271704823L14.210526315789473,212.37979731615633L17.05263157894737,213.97535933274776L19.89473684210526,214.67194321425632L22.736842105263158,214.99331834586337L25.578947368421055,215.83356783119962L28.421052631578945,216.1379995252937L31.263157894736842,216.31625693966635L34.10526315789474,216.44873280753382L36.94736842105264,216.54888081690297L39.78947368421052,216.6388927968219L42.63157894736842,216.72240738733672L45.473684210526315,216.80630083288997L48.31578947368421,216.86756967252586L51.15789473684211,216.93411227117758L54,216.966256820946L56.84210526315789,217.05784005497117L59.68421052631579,217.08341684925836L62.526315789473685,217.18526983377524L65.36842105263158,217.25353397929575L68.21052631578948,217.30184972437564L71.05263157894737,217.35983392142225L73.89473684210527,217.37072141468525L76.73684210526315,216.65594101860188L79.57894736842104,214.3277516271919L82.42105263157895,215.08642974752001L85.26315789473684,216.48651888105087L88.10526315789474,215.72102035023272L90.94736842105263,214.09605449158698L93.78947368421053,215.36010356247425L96.63157894736842,217.53057096130215L99.47368421052632,217.3931667910656L102.31578947368422,217.4737884689821L105.1578947368421,217.79852294339798L108,217.82876289251726L110.84210526315789,217.87622583133634L113.68421052631578,217.90257180843037L116.52631578947368,217.93303687800653L119.36842105263158,217.95524043473415L122.21052631578948,217.98464561527362L125.05263157894737,218.01096692599822L127.89473684210526,218.03241608699318L130.73684210526315,218.04848625854356L133.57894736842104,218.0679681650363L136.42105263157896,218.09083592909155L139.26315789473685,218.11712435132358L142.10526315789474,218.1343732821406L144.94736842105263,218.15779371309327L147.78947368421055,218.16637544258265L150.6315789473684,218.1866677699727L153.4736842105263,218.2050002363976L156.31578947368422,218.22552769101458L159.15789473684208,218.2414848561748L162,218.25966683862498L164.8421052631579,218.2727184711839L167.6842105263158,218.28399590979097L170.52631578947367,218.29808607936138L173.3684210526316,218.3162825301988L176.21052631578948,218.32269839948276L179.05263157894734,218.330617642554L181.89473684210526,218.344012819638L184.73684210526315,218.36380480852677L187.57894736842107,218.37612505455036L190.42105263157893,218.38372452714248L193.26315789473685,218.39356341288658L196.10526315789474,218.3924531713128L198.94736842105263,218.4089869686286L201.78947368421052,218.40521180309588L204.63157894736844,218.34648844355252L207.4736842105263,218.42563485587016L210.3157894736842,218.40992735006148L213.1578947368421,218.3290427554166L216,218.42121932079317L218.8421052631579,217.62066490750294L221.68421052631578,218.21593693492468L224.5263157894737,216.9924151551677L227.36842105263156,215.36299647507258L230.21052631578948,208.35285991989076L233.05263157894737,206.91486284695566L235.8947368421053,206.97778643667698L238.73684210526315,206.99667004030198L241.57894736842104,207.00682723056525L244.42105263157896,207.01386791747063L247.26315789473682,207.0202008644119L250.10526315789474,207.02790238056332L252.94736842105263,207.03116063587368L255.78947368421052,207.0387448752299L258.63157894736844,207.04993512108922L261.4736842105263,207.0559927225113L264.3157894736842,207.06168727576733L267.1578947368421,207.06660066358745L270,207.06659352499992L272.8421052631579,207.07647740934044L275.6842105263158,207.08273387141526L278.5263157894737,207.08698642998934L281.36842105263156,207.09119717683643L284.2105263157895,207.09689173009247L287.05263157894734,207.10133091174066L289.89473684210526,207.10709889046848L292.7368421052632,207.1125486921519L295.5789473684211,207.11603436246514L298.42105263157896,207.1120122782886L301.2631578947368,207.1237419974059L304.10526315789474,207.1261487212032L306.9473684210526,207.13099786173552L309.7894736842105,207.1310763861984L312.63157894736844,207.13544928096235L315.47368421052636,207.14213609788567L318.31578947368416,207.146189795807L321.1578947368421,207.1514040241018L324,207.1538046291098L326.8421052631579,207.15701291430742L329.6842105263158,207.16144699696451L332.5263157894737,207.16338563337922L335.3684210526316,207.16574136726558L338.2105263157894,207.17062416113913L341.05263157894734,207.17468805704266L343.89473684210526,207.1758587853983L346.7368421052632,207.17847558762878L349.57894736842104,207.1785622704774L352.42105263157896,207.18533067125827L355.2631578947369,207.1860016984865L358.1052631578947,207.18601291626692L360.9473684210526,207.18842983804643L363.7894736842105,207.19630471989512L366.63157894736844,207.19739896338433L369.4736842105263,207.20102536585182L372.3157894736842,207.20199417416006L375.15789473684214,207.20406640414149L378,207.2106247264892L380.84210526315786,207.20848722942173L383.6842105263158,207.20367786101997L386.5263157894737,207.2148426119238L389.3684210526316,207.21943272370845L392.2105263157895,207.21419605985284L395.0526315789474,207.22173644788563L397.89473684210526,207.2247397536412L400.7368421052631,207.22825295850635L403.57894736842104,207.22384743019938L406.42105263157896,207.2315326295793L409.2631578947369,207.23407396674156L412.10526315789474,207.233736413531L414.9473684210526,207.2399918558076L417.7894736842105,207.2416694238782L420.6315789473684,207.2437936635688L423.4736842105263,207.24429132509977L426.3157894736842,207.24663380160928L429.15789473684214,207.24496133252978L432,207.24805540032685L434.84210526315786,207.247702550143L437.6842105263158,207.2546963263303L440.5263157894737,207.25688073411584L443.36842105263156,207.2590875774622L446.2105263157895,207.26144943013787L449.0526315789474,207.2626191386953L451.8947368421053,207.26492184307426L454.7368421052631,207.26554697938263L457.57894736842104,207.26720517128706L460.42105263157896,207.27371148392558L463.2631578947368,207.2696129148826L466.10526315789474,207.27390524558723L468.94736842105266,207.27708701603115L471.7894736842106,207.28025654889643L474.6315789473684,207.28155679162592L477.4736842105263,207.2787411287427L480.3157894736842,207.28260922338814L483.1578947368421,207.28582770656794L486,207.28629477415234L488.8421052631579,207.28805392608047L491.68421052631584,207.28735638409853L494.52631578947364,207.28868620097637L497.36842105263156,207.29570955131203L500.2105263157895,207.295983877033L503.0526315789474,207.29576462041587L505.89473684210526,207.29810505732894L508.7368421052632,207.2987771043554L511.57894736842104,207.30183343961835L514.421052631579,207.3041402231902L517.2631578947369,207.30261868424714L520.1052631578947,207.30516410060227L522.9473684210526,207.30050974152982L525.7894736842105,207.3068498270586L528.6315789473684,207.30848558340222L531.4736842105262,207.31046093255281L534.3157894736842,207.31469411496073L537.1578947368421,207.3118937490508L540,207.31645326688886L542.8421052631579,207.3168173348531L545.6842105263158,207.31595254596323L548.5263157894738,207.3205650933087L551.3684210526316,207.3216328220442L554.2105263157895,207.3220580779016L557.0526315789474,207.32439239602536L559.8947368421052,207.32468507811427L562.7368421052631,207.32386210095137L565.578947368421,207.32709894049913" class="rv-xy-plot__series rv-xy-plot__series--line" transform="translate(40,5)" style="opacity: 1; stroke-dasharray: 4, 2; stroke-width: 1.5; stroke: rgb(83, 135, 221);"/><path d="M0,-182.09975829720497L2.8421052631578947,176.40128248929977L5.684210526315789,186.63642000965774L8.526315789473685,193.4299628958106L11.368421052631579,200.43292950466275L14.210526315789473,209.40813997853547L17.05263157894737,213.55899611581117L19.89473684210526,214.45704929390922L22.736842105263158,215.1508911929559L25.578947368421055,215.5633409342263L28.421052631578945,215.83116008760408L31.263157894736842,216.02786488691345L34.10526315789474,216.18798799440265L36.94736842105264,216.3153750691563L39.78947368421052,216.44806203525513L42.63157894736842,216.5516258587595L45.473684210526315,216.64724239474162L48.31578947368421,216.7356639993377L51.15789473684211,216.80995324021205L54,216.88646678847726L56.84210526315789,216.9596647177823L59.68421052631579,217.01331273280084L62.526315789473685,217.0769592319848L65.36842105263158,217.0849649029551L68.21052631578948,217.18493750703055L71.05263157894737,217.249622543226L73.89473684210527,217.309499740717L76.73684210526315,217.3530068822438L79.57894736842104,217.41714237467386L82.42105263157895,217.47177997638937L85.26315789473684,217.52163829375058L88.10526315789474,217.5669451241847L90.94736842105263,217.6116993514588L93.78947368421053,217.64212069718633L96.63157894736842,217.68753307673614L99.47368421052632,217.72038179717492L102.31578947368422,217.76173448748887L105.1578947368421,217.7938879604917L108,217.82756705163047L110.84210526315789,217.8622080674395L113.68421052631578,217.8935500360094L116.52631578947368,217.92930900561623L119.36842105263158,217.9327696271357L122.21052631578948,217.96761766198324L125.05263157894737,217.98086286499165L127.89473684210526,218.02893264748855L130.73684210526315,218.05655910872156L133.57894736842104,218.0568442060612L136.42105263157896,218.02240753232036L139.26315789473685,217.9967335385154L142.10526315789474,217.83296191168483L144.94736842105263,218.01408470410388L147.78947368421055,217.62238237517886L150.6315789473684,217.9974633953534L153.4736842105263,218.09326081804466L156.31578947368422,218.00087334564887L159.15789473684208,217.74422162014525L162,218.15435348753817L164.8421052631579,218.28073739953106L167.6842105263158,218.05946648970712L170.52631578947367,218.06754137948155L173.3684210526316,218.0142949100118L176.21052631578948,218.24411988729844L179.05263157894734,218.34600773616694L181.89473684210526,218.361886823026L184.73684210526315,218.39920774108032L187.57894736842107,218.40634454396786L190.42105263157893,218.41656547161983L193.26315789473685,218.43346365558682L196.10526315789474,218.4415236308123L198.94736842105263,218.44993078359403L201.78947368421052,218.45812875026604L204.63157894736844,218.46973698592046L207.4736842105263,218.47937242191983L210.3157894736842,218.4896058421L213.1578947368421,218.49641713814344L216,218.50986722498783L218.8421052631579,218.51624568042462L221.68421052631578,218.52360667957691L224.5263157894737,218.53198107134085L227.36842105263156,218.539688037039L230.21052631578948,218.54708217963343L233.05263157894737,218.5532086174353L235.8947368421053,218.5583804284979L238.73684210526315,218.56431750251795L241.57894736842104,218.56647851868183L244.42105263157896,218.574689710862L247.26315789473682,218.58390323721687L250.10526315789474,218.58302053812076L252.94736842105263,218.5950444371556L255.78947368421052,218.5993871203973L258.63157894736844,218.60978577975766L261.4736842105263,218.61391685486888L264.3157894736842,218.62091069479357L267.1578947368421,218.62523591399076L270,218.62246187162236L272.8421052631579,218.63620253722183L275.6842105263158,218.62675821778248L278.5263157894737,218.55581780304783L281.36842105263156,218.61189376641414L284.2105263157895,218.63062440030626L287.05263157894734,218.63164254135336L289.89473684210526,218.65635250715422L292.7368421052632,218.64714841393288L295.5789473684211,218.51428754036897L298.42105263157896,218.51374548574677L301.2631578947368,217.71926499065012L304.10526315789474,218.50496719015064L306.9473684210526,218.3298358397442L309.7894736842105,218.3512141885003L312.63157894736844,218.63007568512694L315.47368421052636,218.66723212884972L318.31578947368416,218.6775308161159L321.1578947368421,218.22542501008138L324,215.83122153044678L326.8421052631579,216.996623479994L329.6842105263158,218.40929564880207L332.5263157894737,218.68154936286737L335.3684210526316,218.65991313263658L338.2105263157894,218.7128183839959L341.05263157894734,218.72716621196014L343.89473684210526,218.71792903903406L346.7368421052632,218.7162518215191L349.57894736842104,218.71734004182508L352.42105263157896,218.72151496825973L355.2631578947369,218.5931434695376L358.1052631578947,218.67924710465013L360.9473684210526,218.72308456519386L363.7894736842105,218.7173297163681L366.63157894736844,218.75058195821475L369.4736842105263,218.75533576354792L372.3157894736842,218.7596123670519L375.15789473684214,218.75768537864496L378,218.75879429766792L380.84210526315786,218.75929022235505L383.6842105263158,218.74709878959402L386.5263157894737,218.76760772849957L389.3684210526316,218.77438145135238L392.2105263157895,218.77143292788242L395.0526315789474,218.75825158973748L397.89473684210526,218.29219878424192L400.7368421052631,217.97575628914637L403.57894736842104,217.25790483446326L406.42105263157896,218.41218441847013L409.2631578947369,218.6954612270929L412.10526315789474,218.72827218312887L414.9473684210526,218.77928813081235L417.7894736842105,218.75798454601318L420.6315789473684,218.77549779578112L423.4736842105263,218.76248475621105L426.3157894736842,218.7976995837962L429.15789473684214,218.79630532841838L432,218.79953305351955L434.84210526315786,218.7913674017036L437.6842105263158,218.80251822598802L440.5263157894737,218.79484233226685L443.36842105263156,218.8117030067806L446.2105263157895,218.81227559161198L449.0526315789474,218.81339880374435L451.8947368421053,218.81695730995853L454.7368421052631,218.82089970646484L457.57894736842104,218.81057659184444L460.42105263157896,218.8214913009724L463.2631578947368,218.82649052712077L466.10526315789474,218.82715895705041L468.94736842105266,218.82560907090374L471.7894736842106,218.82696737839433L474.6315789473684,218.82937424560077L477.4736842105263,218.82989346630347L480.3157894736842,218.82893627413432L483.1578947368421,218.82941690184816L486,218.83782451672596L488.8421052631579,218.83767011290183L491.68421052631584,218.84034609529772L494.52631578947364,218.83425020363939L497.36842105263156,218.81807268239208L500.2105263157895,218.83971525449306L503.0526315789474,218.84567336185137L505.89473684210526,218.8275854876556L508.7368421052632,218.78017690089473L511.57894736842104,217.94689274893608L514.421052631579,214.69326566532254L517.2631578947369,217.14543970220257L520.1052631578947,217.1873587629525L522.9473684210526,217.9138505217852L525.7894736842105,218.49480282943114L528.6315789473684,218.26694380003028L531.4736842105262,218.72822645155247L534.3157894736842,218.8023933803779L537.1578947368421,218.8481617651123L540,218.85095537485904L542.8421052631579,218.81900697690435L545.6842105263158,218.47074116847944L548.5263157894738,214.19770899787545L551.3684210526316,207.73159476555884L554.2105263157895,207.2576058106497L557.0526315789474,207.29869348090142L559.8947368421052,207.31667456310242L562.7368421052631,207.3236408047378L565.578947368421,207.32870308309793" class="rv-xy-plot__series rv-xy-plot__series--line" transform="translate(40,5)" style="opacity: 1; stroke-dasharray: 4, 2; stroke-width: 1.5; stroke: rgb(218, 76, 76);"/><path d="M0,170.2152436003089L2.8421052631578947,152.10904439538717L5.684210526315789,131.03190375119448L8.526315789473685,138.09300293773413L11.368421052631579,137.59754417091608L14.210526315789473,148.54334031790495L17.05263157894737,139.69348242133856L19.89473684210526,140.2322622165084L22.736842105263158,158.67679783701897L25.578947368421055,140.77716080099344L28.421052631578945,140.94015718996525L31.263157894736842,141.081101462245L34.10526315789474,141.18649964779615L36.94736842105264,141.28798996657133L39.78947368421052,141.37806670367718L42.63157894736842,141.45402943342924L45.473684210526315,141.52791177481413L48.31578947368421,141.59741306304932L51.15789473684211,141.65452176332474L54,141.74131882935762L56.84210526315789,141.79872123152018L59.68421052631579,141.84510165452957L62.526315789473685,141.9080680757761L65.36842105263158,141.96702057123184L68.21052631578948,142.01468186080456L71.05263157894737,142.07977762073278L73.89473684210527,142.1153318658471L76.73684210526315,192.61536031588912L79.57894736842104,193.36724938452244L82.42105263157895,142.2435816898942L85.26315789473684,142.31730902194977L88.10526315789474,142.37470326572657L90.94736842105263,190.310192104429L93.78947368421053,142.45088627189398L96.63157894736842,142.4671948850155L99.47368421052632,152.62438106909394L102.31578947368422,142.53012051433325L105.1578947368421,142.55570521205664L108,142.5939435660839L110.84210526315789,142.63027285784483L113.68421052631578,142.66195186972618L116.52631578947368,142.6975795403123L119.36842105263158,142.72380059212446L122.21052631578948,142.76474753022194L125.05263157894737,142.7754186987877L127.89473684210526,142.80030177533627L130.73684210526315,142.82985960692167L133.57894736842104,142.85860975831747L136.42105263157896,142.88533663004637L139.26315789473685,142.90170235186815L142.10526315789474,142.9258185401559L144.94736842105263,142.96099749952555L147.78947368421055,142.97013489156961L150.6315789473684,142.9889807626605L153.4736842105263,143.0208963677287L156.31578947368422,143.0467095002532L159.15789473684208,143.06225938349962L162,143.08324275165796L164.8421052631579,143.0983847156167L167.6842105263158,143.11427725106478L170.52631578947367,143.1344529390335L173.3684210526316,143.13819763809443L176.21052631578948,143.16972164064646L179.05263157894734,143.1882248595357L181.89473684210526,143.20007899403572L184.73684210526315,143.21456012874842L187.57894736842107,143.22729536890984L190.42105263157893,143.24559462815523L193.26315789473685,143.25567023456097L196.10526315789474,143.26365729421377L198.94736842105263,143.28402062505484L201.78947368421052,143.29527919739485L204.63157894736844,143.3078349530697L207.4736842105263,143.320904687047L210.3157894736842,143.33723777532578L213.1578947368421,143.34059087187052L216,148.29272286593914L218.8421052631579,175.57922722399235L221.68421052631578,148.07520398497581L224.5263157894737,185.05185141786933L227.36842105263156,143.39060177654028L230.21052631578948,143.34839844703674L233.05263157894737,143.37214750796556L235.8947368421053,143.4170594215393L238.73684210526315,143.42059200257063L241.57894736842104,143.44237489253283L244.42105263157896,143.44868132472038L247.26315789473682,143.4612941890955L250.10526315789474,143.47271592915058L252.94736842105263,143.45824295282364L255.78947368421052,143.4731891155243L258.63157894736844,143.48966905474663L261.4736842105263,143.49972834438086L264.3157894736842,143.50561054050922L267.1578947368421,143.5103831961751L270,143.52283289283514L272.8421052631579,143.5245298370719L275.6842105263158,143.53333273530006L278.5263157894737,143.54238038510084L281.36842105263156,143.5420377328992L284.2105263157895,143.5443220809102L287.05263157894734,143.55279048532248L289.89473684210526,143.56191156059504L292.7368421052632,143.56807930022478L295.5789473684211,143.57119580358267L298.42105263157896,143.57969684153795L301.2631578947368,143.5776490867138L304.10526315789474,143.58748809993267L306.9473684210526,143.5931989699602L309.7894736842105,143.6020181849599L312.63157894736844,143.60636660456657L315.47368421052636,143.60645634680986L318.31578947368416,143.61635246872902L321.1578947368421,143.6122895926237L324,143.6233931556344L326.8421052631579,143.62355632334948L329.6842105263158,143.63033594191074L332.5263157894737,143.6265586093068L335.3684210526316,143.63715635240078L338.2105263157894,143.63716451078653L341.05263157894734,143.64511893689632L343.89473684210526,143.6507726982236L346.7368421052632,143.64527394622564L349.57894736842104,143.65330179780722L352.42105263157896,143.65773180127144L355.2631578947369,143.65781338512897L358.1052631578947,143.66643679887056L360.9473684210526,143.65951032936573L363.7894736842105,143.66850087046623L366.63157894736844,143.67856016010046L369.4736842105263,143.6715847402811L372.3157894736842,143.66666523367167L375.15789473684214,143.68029789626598L378,143.67906598001719L380.84210526315786,143.67608001083136L383.6842105263158,143.68219064176083L386.5263157894737,143.69026744365692L389.3684210526316,143.6814400702715L392.2105263157895,143.6865961700678L395.0526315789474,143.6950400993228L397.89473684210526,143.69483613967896L400.7368421052631,143.69311472028494L403.57894736842104,143.70477305352688L406.42105263157896,143.70013909041882L409.2631578947369,143.70868092030287L412.10526315789474,143.69721022993326L414.9473684210526,143.70836274325848L417.7894736842105,143.7133393585682L420.6315789473684,143.71296407282352L423.4736842105263,143.71216455101967L426.3157894736842,143.7222564741969L429.15789473684214,143.70927648246288L432,143.71843019127846L434.84210526315786,143.72452450543642L437.6842105263158,143.7204616293311L440.5263157894737,143.72508743405342L443.36842105263156,143.72677621990442L446.2105263157895,143.7323728725314L449.0526315789474,143.7319731116295L451.8947368421053,143.73633784800768L454.7368421052631,143.73671313375235L457.57894736842104,143.73394744098186L460.42105263157896,143.7336945310235L463.2631578947368,143.74059652537107L466.10526315789474,143.73634600639343L468.94736842105266,143.74014781415462L471.7894736842106,143.73945435136557L474.6315789473684,143.74953811615705L477.4736842105263,143.7492117807269L480.3157894736842,143.74576894193888L483.1578947368421,143.74126551300287L486,143.74824093282223L488.8421052631579,143.7504273802042L491.68421052631584,143.754473939538L494.52631578947364,143.7512350603938L497.36842105263156,143.7495462745428L500.2105263157895,143.7520998492837L503.0526315789474,143.75340519100428L505.89473684210526,143.75580375641584L508.7368421052632,143.75814521312714L511.57894736842104,143.7610903903842L514.421052631579,143.76375002413988L517.2631578947369,143.74731903523207L520.1052631578947,143.76996671408415L522.9473684210526,143.7652593255043L525.7894736842105,143.7672499716282L528.6315789473684,143.7684247791767L531.4736842105262,143.76491667330265L534.3157894736842,143.7711170464754L537.1578947368421,143.76911824196577L540,143.77135363966227L542.8421052631579,143.7772929444909L545.6842105263158,143.76942010223866L548.5263157894738,143.77543283253908L551.3684210526316,143.7744619846344L554.2105263157895,143.7762405127287L557.0526315789474,143.7769095003605L559.8947368421052,143.77722767740488L562.7368421052631,143.77774165570736L565.578947368421,143.77515544742346" class="rv-xy-plot__series rv-xy-plot__series--line" transform="translate(40,5)" style="opacity: 1; stroke-width: 1.5; stroke: rgb(83, 135, 221);"/><path d="M0,103.71847672015429L2.8421052631578947,114.6950381398201L5.684210526315789,124.08277840912342L8.526315789473685,130.58681485801935L11.368421052631579,202.9121884899214L14.210526315789473,211.372930648271L17.05263157894737,212.84773223893717L19.89473684210526,213.7155682859011L22.736842105263158,213.8808954237029L25.578947368421055,214.32629739493132L28.421052631578945,214.69337580353022L31.263157894736842,215.0201816156041L34.10526315789474,215.29869564785622L36.94736842105264,215.4485496422276L39.78947368421052,215.26682083471678L42.63157894736842,214.87401750613935L45.473684210526315,213.90933912573382L48.31578947368421,213.10647238371894L51.15789473684211,212.71475004125386L54,210.60851896740496L56.84210526315789,210.89346843631938L59.68421052631579,212.51848018588498L62.526315789473685,207.68283209390938L65.36842105263158,212.50068980595097L68.21052631578948,208.60564852226526L71.05263157894737,208.81215154286474L73.89473684210527,210.77117372397333L76.73684210526315,205.5418197819963L79.57894736842104,206.14244829956442L82.42105263157895,206.83531144727021L85.26315789473684,205.92345173098147L88.10526315789474,206.73523456882685L90.94736842105263,207.57782755047083L93.78947368421053,207.60540391411632L96.63157894736842,207.6374296573922L99.47368421052632,208.83492159750313L102.31578947368422,208.31520489044487L105.1578947368421,208.86249898094684L108,209.00610390678048L110.84210526315789,209.32941665500402L113.68421052631578,209.32799607608467L116.52631578947368,208.8829041235149L119.36842105263158,209.43247032444924L122.21052631578948,208.52519052196294L125.05263157894737,211.0814820053056L127.89473684210526,209.01325371209532L130.73684210526315,210.97233555139974L133.57894736842104,213.1202661744319L136.42105263157896,210.8308130535297L139.26315789473685,200.9322757422924L142.10526315789474,207.99483935907483L144.94736842105263,207.77763763535768L147.78947368421055,210.5567978611216L150.6315789473684,210.7891899892129L153.4736842105263,199.34689335152507L156.31578947368422,204.95022157765925L159.15789473684208,213.59427603520453L162,212.17681055981666L164.8421052631579,207.65108883474022L167.6842105263158,216.21243561711162L170.52631578947367,211.65415377449244L173.3684210526316,214.8204118127469L176.21052631578948,206.5703882658854L179.05263157894734,206.87942179944366L181.89473684210526,212.96038373932242L184.73684210526315,211.18982536811382L187.57894736842107,211.41859160363674L190.42105263157893,211.43450147565454L193.26315789473685,211.70416824845597L196.10526315789474,211.63722410425544L198.94736842105263,211.20217410475016L201.78947368421052,211.759228174109L204.63157894736844,210.90898721572012L207.4736842105263,211.10701673291624L210.3157894736842,211.05155653646216L213.1578947368421,210.98324331315234L216,210.35756498202682L218.8421052631579,210.34980431757867L221.68421052631578,210.96913287509233L224.5263157894737,210.88002035720274L227.36842105263156,210.63601068779826L230.21052631578948,210.79642137838528L233.05263157894737,210.2760494509712L235.8947368421053,210.41668574418873L238.73684210526315,211.96107734553516L241.57894736842104,210.42426590435207L244.42105263157896,210.07025009114295L247.26315789473682,210.07237841002643L250.10526315789474,210.4576637861319L252.94736842105263,210.17238594219089L255.78947368421052,210.43804643768817L258.63157894736844,210.83743715286255L261.4736842105263,211.11648657917976L264.3157894736842,210.84416374191642L267.1578947368421,210.70086424564943L270,211.3014642088674L272.8421052631579,212.07225982658565L275.6842105263158,213.99894573586062L278.5263157894737,215.24653347884305L281.36842105263156,214.0784466555342L284.2105263157895,213.71286021173L287.05263157894734,213.2366690025665L289.89473684210526,213.08318070229143L292.7368421052632,216.72729349555448L295.5789473684211,216.09832733497024L298.42105263157896,212.60093597089872L301.2631578947368,197.1263745110482L304.10526315789474,209.54149593226612L306.9473684210526,215.8667859735433L309.7894736842105,210.89493286656216L312.63157894736844,211.8442411031574L315.47368421052636,211.9254517145455L318.31578947368416,209.07526968140155L321.1578947368421,188.9511804431677L324,202.99207132402807L326.8421052631579,216.1520243003033L329.6842105263158,215.61193304462358L332.5263157894737,215.54120697872713L335.3684210526316,211.47198262950405L338.2105263157894,212.6104940297082L341.05263157894734,212.33127735648304L343.89473684210526,215.20721439365298L346.7368421052632,215.35531076579355L349.57894736842104,214.00499517889693L352.42105263157896,212.6081413552165L355.2631578947369,212.06459859246388L358.1052631578947,213.01652210159227L360.9473684210526,212.8022298621945L363.7894736842105,212.65287174470723L366.63157894736844,212.95128255011514L369.4736842105263,214.67088364390656L372.3157894736842,214.71775306016207L375.15789473684214,213.71219326369464L378,214.3355316678062L380.84210526315786,214.93903270200826L383.6842105263158,214.8953218557872L386.5263157894737,214.54956232896075L389.3684210526316,214.42913027806208L392.2105263157895,216.03993802308105L395.0526315789474,217.59580146207009L397.89473684210526,217.9793643989833L400.7368421052631,208.42701862659305L403.57894736842104,215.3826617540326L406.42105263157896,214.9472079144325L409.2631578947369,211.51775168348104L412.10526315789474,213.33474299730733L414.9473684210526,213.04619924956933L417.7894736842105,214.91712871100754L420.6315789473684,216.2930861043278L423.4736842105263,215.35076654492877L426.3157894736842,214.0957424333319L429.15789473684214,213.64950881665573L432,213.96341188671067L434.84210526315786,215.10520499758422L437.6842105263158,214.357154449448L440.5263157894737,214.27543750824407L443.36842105263156,213.91064089816064L446.2105263157895,214.05922549869865L449.0526315789474,214.23378690937534L451.8947368421053,214.80127810360864L454.7368421052631,215.01711686700583L457.57894736842104,214.0515550863929L460.42105263157896,214.62280933605507L463.2631578947368,214.62261047540233L466.10526315789474,214.6002519093454L468.94736842105266,214.65793730551377L471.7894736842106,214.2847008453682L474.6315789473684,214.7825510390103L477.4736842105263,214.98623329773545L480.3157894736842,214.3273273911327L483.1578947368421,214.65846607089043L486,214.62389236176386L488.8421052631579,214.71837309747934L491.68421052631584,214.27044457616284L494.52631578947364,215.25960627221502L497.36842105263156,215.3471913873218L500.2105263157895,214.52369667682797L503.0526315789474,215.5437916573137L505.89473684210526,212.2558199367486L508.7368421052632,217.44227542926092L511.57894736842104,198.43252187222242L514.421052631579,200.30038633011281L517.2631578947369,218.02369776827982L520.1052631578947,211.47752472292632L522.9473684210526,217.7773982057115L525.7894736842105,210.99601475615054L528.6315789473684,213.54215771751478L531.4736842105262,217.3780589903472L534.3157894736842,217.98879421816673L537.1578947368421,217.3265721827047L540,216.94382839871105L542.8421052631579,215.16841413080692L545.6842105263158,187.65006068721414L548.5263157894738,206.45401807129383L551.3684210526316,143.66182731091976L554.2105263157895,143.70203183591366L557.0526315789474,143.70399800688028L559.8947368421052,143.71459574997425L562.7368421052631,143.71241746097803L565.578947368421,143.70859933644533" class="rv-xy-plot__series rv-xy-plot__series--line" transform="translate(40,5)" style="opacity: 1; stroke-width: 1.5; stroke: rgb(218, 76, 76);"/><g class="rv-xy-plot__series rv-xy-plot__series--mark" transform="translate(40,5)"><circle r="2" cx="565.578947368421" cy="143.70859933644533" style="opacity: 1; stroke: rgb(218, 76, 76); fill: rgb(218, 76, 76); stroke-width: 1;"/></g><g class="rv-xy-plot__series rv-xy-plot__series--mark" transform="translate(40,5)"><circle r="2" cx="565.578947368421" cy="143.77515544742346" style="opacity: 1; stroke: rgb(83, 135, 221); fill: rgb(83, 135, 221); stroke-width: 1;"/></g><g class="rv-xy-plot__series rv-xy-plot__series--mark" transform="translate(40,5)"><circle r="2" cx="565.578947368421" cy="207.32870308309793" style="opacity: 1; stroke: rgb(218, 76, 76); fill: rgb(218, 76, 76); stroke-width: 1;"/></g><g class="rv-xy-plot__series rv-xy-plot__series--mark" transform="translate(40,5)"><circle r="2" cx="565.578947368421" cy="207.32709894049913" style="opacity: 1; stroke: rgb(83, 135, 221); fill: rgb(83, 135, 221); stroke-width: 1;"/></g><defs class="rv-gradient-defs"><linearGradient id="leftFadeGradient" x1="0" x2="1" y1="0" y2="0"><stop offset="0%" stop-color="white" stop-opacity="1"/><stop offset="60%" stop-color="white" stop-opacity="1"/><stop offset="100%" stop-color="white" stop-opacity="0"/></linearGradient><linearGradient id="rightFadeGradient" x1="1" x2="0" y1="0" y2="0"><stop offset="0%" stop-color="white" stop-opacity="1"/><stop offset="100%" stop-color="white" stop-opacity="0"/></linearGradient><linearGradient id="bottomFadeGradient" x1="0" x2="0" y1="1" y2="0"><stop offset="0%" stop-color="white" stop-opacity="1"/><stop offset="40%" stop-color="white" stop-opacity="1"/><stop offset="100%" stop-color="white" stop-opacity="0"/></linearGradient><linearGradient id="topFadeGradient" x1="0" x2="0" y1="0" y2="1"><stop offset="0%" stop-color="white" stop-opacity="1"/><stop offset="100%" stop-color="white" stop-opacity="0"/></linearGradient></defs><g class="rv-xy-plot__borders plot-border"><rect class="rv-xy-plot__borders-bottom plot-border-bottom" x="0" y="224" width="600" height="30" style="fill: url(&quot;#bottomFadeGradient&quot;); opacity: 1;"/><rect class="rv-xy-plot__borders-left plot-border-left" x="0" y="0" width="40" height="254" style="fill: url(&quot;#leftFadeGradient&quot;); opacity: 1;"/><rect class="rv-xy-plot__borders-right plot-border-right" x="580" y="0" width="20" height="254" style="fill: url(&quot;#rightFadeGradient&quot;); opacity: 1;"/><rect class="rv-xy-plot__borders-top plot-border-top" x="0" y="0" width="600" height="5" style="fill: url(&quot;#topFadeGradient&quot;); opacity: 1;"/></g><g transform="translate(40,224)" class="rv-xy-plot__axis rv-xy-plot__axis--horizontal"><line x1="0" x2="540" y1="0" y2="0" class="rv-xy-plot__axis__line"/><g transform="translate(0, 0)" class="rv-xy-plot__axis__ticks"/></g><g transform="translate(40,224)" class="rv-xy-plot__axis rv-xy-plot__axis--horizontal" style="font-family: &quot;Source Sans Pro&quot;; fill: rgb(107, 107, 118); font-size: 11px;"><line x1="0" x2="540" y1="0" y2="0" class="rv-xy-plot__axis__line" style="font-family: &quot;Source Sans Pro&quot;; fill: rgb(107, 107, 118); font-size: 11px; stroke-width: 0;"/><g transform="translate(0, 0)" class="rv-xy-plot__axis__ticks"><g transform="translate(0, 0)" class="rv-xy-plot__axis__tick" style="font-family: &quot;Source Sans Pro&quot;; fill: rgb(107, 107, 118); font-size: 11px;"><line x1="0" x2="0" y1="-6" y2="6" class="rv-xy-plot__axis__tick__line" style="font-family: &quot;Source Sans Pro&quot;; fill: rgb(107, 107, 118); font-size: 11px; stroke-width: 0;"/><text text-anchor="middle" dy="0.72em" transform="translate(0, 14)" class="rv-xy-plot__axis__tick__text" style="font-family: sans-serif; fill: rgb(107, 107, 118); font-size: 11px;">0</text></g><g transform="translate(142.10526315789474, 0)" class="rv-xy-plot__axis__tick" style="font-family: &quot;Source Sans Pro&quot;; fill: rgb(107, 107, 118); font-size: 11px;"><line x1="0" x2="0" y1="-6" y2="6" class="rv-xy-plot__axis__tick__line" style="font-family: &quot;Source Sans Pro&quot;; fill: rgb(107, 107, 118); font-size: 11px; stroke-width: 0;"/><text text-anchor="middle" dy="0.72em" transform="translate(0, 14)" class="rv-xy-plot__axis__tick__text" style="font-family: sans-serif; fill: rgb(107, 107, 118); font-size: 11px;">50</text></g><g transform="translate(284.2105263157895, 0)" class="rv-xy-plot__axis__tick" style="font-family: &quot;Source Sans Pro&quot;; fill: rgb(107, 107, 118); font-size: 11px;"><line x1="0" x2="0" y1="-6" y2="6" class="rv-xy-plot__axis__tick__line" style="font-family: &quot;Source Sans Pro&quot;; fill: rgb(107, 107, 118); font-size: 11px; stroke-width: 0;"/><text text-anchor="middle" dy="0.72em" transform="translate(0, 14)" class="rv-xy-plot__axis__tick__text" style="font-family: sans-serif; fill: rgb(107, 107, 118); font-size: 11px;">100</text></g><g transform="translate(426.3157894736842, 0)" class="rv-xy-plot__axis__tick" style="font-family: &quot;Source Sans Pro&quot;; fill: rgb(107, 107, 118); font-size: 11px;"><line x1="0" x2="0" y1="-6" y2="6" class="rv-xy-plot__axis__tick__line" style="font-family: &quot;Source Sans Pro&quot;; fill: rgb(107, 107, 118); font-size: 11px; stroke-width: 0;"/><text text-anchor="middle" dy="0.72em" transform="translate(0, 14)" class="rv-xy-plot__axis__tick__text" style="font-family: sans-serif; fill: rgb(107, 107, 118); font-size: 11px;">150</text></g></g><g transform="translate(0, 0)" class="rv-xy-plot__axis__title"><g transform="translate(534, -6) rotate(0)" style="text-anchor: end; font-family: &quot;Source Sans Pro&quot;; fill: rgb(107, 107, 118); font-size: 11px;"><text style="font-family: sans-serif; fill: rgb(107, 107, 118); font-size: 11px;">epoch</text></g></g></g><g transform="translate(40,224)" class="rv-xy-plot__axis rv-xy-plot__axis--horizontal"><line x1="0" x2="0" y1="0" y2="0" class="rv-xy-plot__axis__line"/><g transform="translate(0, 0)" class="rv-xy-plot__axis__ticks"><g transform="translate(0, 0)" class="rv-xy-plot__axis__tick"><line x1="0" x2="0" y1="-6" y2="6" class="rv-xy-plot__axis__tick__line"/><text text-anchor="middle" dy="0.72em" transform="translate(0, 14)" class="rv-xy-plot__axis__tick__text" style="font-family: sans-serif;"/></g><g transform="translate(142.10526315789474, 0)" class="rv-xy-plot__axis__tick"><line x1="0" x2="0" y1="-6" y2="6" class="rv-xy-plot__axis__tick__line"/><text text-anchor="middle" dy="0.72em" transform="translate(0, 14)" class="rv-xy-plot__axis__tick__text" style="font-family: sans-serif;"/></g><g transform="translate(284.2105263157895, 0)" class="rv-xy-plot__axis__tick"><line x1="0" x2="0" y1="-6" y2="6" class="rv-xy-plot__axis__tick__line"/><text text-anchor="middle" dy="0.72em" transform="translate(0, 14)" class="rv-xy-plot__axis__tick__text" style="font-family: sans-serif;"/></g><g transform="translate(426.3157894736842, 0)" class="rv-xy-plot__axis__tick"><line x1="0" x2="0" y1="-6" y2="6" class="rv-xy-plot__axis__tick__line"/><text text-anchor="middle" dy="0.72em" transform="translate(0, 14)" class="rv-xy-plot__axis__tick__text" style="font-family: sans-serif;"/></g></g></g><g transform="translate(0,5)" class="rv-xy-plot__axis rv-xy-plot__axis--vertical" style="font-family: &quot;Source Sans Pro&quot;; fill: rgb(107, 107, 118); font-size: 11px;"><line x1="40" x2="40" y1="0" y2="219" class="rv-xy-plot__axis__line" style="font-family: &quot;Source Sans Pro&quot;; fill: rgb(107, 107, 118); font-size: 11px; stroke: none;"/><g transform="translate(40, 0)" class="rv-xy-plot__axis__ticks"><g transform="translate(0, 219)" class="rv-xy-plot__axis__tick" style="font-family: &quot;Source Sans Pro&quot;; fill: rgb(107, 107, 118); font-size: 11px;"><line y1="0" y2="0" x1="6" x2="-6" class="rv-xy-plot__axis__tick__line" style="font-family: &quot;Source Sans Pro&quot;; fill: rgb(107, 107, 118); font-size: 11px; stroke: none;"/><text text-anchor="end" dy="0.32em" transform="translate(-14, 0)" class="rv-xy-plot__axis__tick__text" style="font-family: sans-serif; fill: rgb(107, 107, 118); font-size: 11px;">0</text></g><g transform="translate(0, 164.25)" class="rv-xy-plot__axis__tick" style="font-family: &quot;Source Sans Pro&quot;; fill: rgb(107, 107, 118); font-size: 11px;"><line y1="0" y2="0" x1="6" x2="-6" class="rv-xy-plot__axis__tick__line" style="font-family: &quot;Source Sans Pro&quot;; fill: rgb(107, 107, 118); font-size: 11px; stroke: none;"/><text text-anchor="end" dy="0.32em" transform="translate(-14, 0)" class="rv-xy-plot__axis__tick__text" style="font-family: sans-serif; fill: rgb(107, 107, 118); font-size: 11px;">0.05</text></g><g transform="translate(0, 109.5)" class="rv-xy-plot__axis__tick" style="font-family: &quot;Source Sans Pro&quot;; fill: rgb(107, 107, 118); font-size: 11px;"><line y1="0" y2="0" x1="6" x2="-6" class="rv-xy-plot__axis__tick__line" style="font-family: &quot;Source Sans Pro&quot;; fill: rgb(107, 107, 118); font-size: 11px; stroke: none;"/><text text-anchor="end" dy="0.32em" transform="translate(-14, 0)" class="rv-xy-plot__axis__tick__text" style="font-family: sans-serif; fill: rgb(107, 107, 118); font-size: 11px;">0.1</text></g><g transform="translate(0, 54.75000000000002)" class="rv-xy-plot__axis__tick" style="font-family: &quot;Source Sans Pro&quot;; fill: rgb(107, 107, 118); font-size: 11px;"><line y1="0" y2="0" x1="6" x2="-6" class="rv-xy-plot__axis__tick__line" style="font-family: &quot;Source Sans Pro&quot;; fill: rgb(107, 107, 118); font-size: 11px; stroke: none;"/><text text-anchor="end" dy="0.32em" transform="translate(-14, 0)" class="rv-xy-plot__axis__tick__text" style="font-family: sans-serif; fill: rgb(107, 107, 118); font-size: 11px;">0.15</text></g><g transform="translate(0, 0)" class="rv-xy-plot__axis__tick" style="font-family: &quot;Source Sans Pro&quot;; fill: rgb(107, 107, 118); font-size: 11px;"><line y1="0" y2="0" x1="6" x2="-6" class="rv-xy-plot__axis__tick__line" style="font-family: &quot;Source Sans Pro&quot;; fill: rgb(107, 107, 118); font-size: 11px; stroke: none;"/><text text-anchor="end" dy="0.32em" transform="translate(-14, 0)" class="rv-xy-plot__axis__tick__text" style="font-family: sans-serif; fill: rgb(107, 107, 118); font-size: 11px;">0.2</text></g></g></g></svg></g><style xmlns="http://www.w3.org/1999/xhtml">/*&lt;![CDATA[*/<br />text { font-size: 10px; fill: black }<br />.react-vis-magic-css-import-rule{display:inherit}.rv-treemap{font-size:12px;position:relative}.rv-treemap__leaf{overflow:hidden;position:absolute}.rv-treemap__leaf--circle{align-items:center;border-radius:100%;display:flex;justify-content:center}.rv-treemap__leaf__content{overflow:hidden;padding:10px;text-overflow:ellipsis}.rv-xy-plot{color:#c3c3c3;position:relative}.rv-xy-plot canvas{pointer-events:none}.rv-xy-plot .rv-xy-canvas{pointer-events:none;position:absolute}.rv-xy-plot__inner{display:block}.rv-xy-plot__axis__line{fill:none;stroke-width:2px;stroke:#e6e6e9}.rv-xy-plot__axis__tick__line{stroke:#e6e6e9}.rv-xy-plot__axis__tick__text{fill:#6b6b76;font-size:11px}.rv-xy-plot__axis__title text{fill:#6b6b76;font-size:11px}.rv-xy-plot__grid-lines__line{stroke:#e6e6e9}.rv-xy-plot__circular-grid-lines__line{fill-opacity:0;stroke:#e6e6e9}.rv-xy-plot__series,.rv-xy-plot__series path{pointer-events:all}.rv-xy-plot__series--line{fill:none;stroke:#000;stroke-width:2px}.rv-crosshair{position:absolute;font-size:11px;pointer-events:none}.rv-crosshair__line{background:#47d3d9;width:1px}.rv-crosshair__inner{position:absolute;text-align:left;top:0}.rv-crosshair__inner__content{border-radius:4px;background:#3a3a48;color:#fff;font-size:12px;padding:7px 10px;box-shadow:0 2px 4px rgba(0,0,0,0.5)}.rv-crosshair__inner--left{right:4px}.rv-crosshair__inner--right{left:4px}.rv-crosshair__title{font-weight:bold;white-space:nowrap}.rv-crosshair__item{white-space:nowrap}.rv-hint{position:absolute;pointer-events:none}.rv-hint__content{border-radius:4px;padding:7px 10px;font-size:12px;background:#3a3a48;box-shadow:0 2px 4px rgba(0,0,0,0.5);color:#fff;text-align:left;white-space:nowrap}.rv-discrete-color-legend{box-sizing:border-box;overflow-y:auto;font-size:12px}.rv-discrete-color-legend.horizontal{white-space:nowrap}.rv-discrete-color-legend-item{color:#3a3a48;border-radius:1px;padding:9px 10px}.rv-discrete-color-legend-item.horizontal{display:inline-block}.rv-discrete-color-legend-item.horizontal .rv-discrete-color-legend-item__title{margin-left:0;display:block}.rv-discrete-color-legend-item__color{display:inline-block;vertical-align:middle;overflow:visible}.rv-discrete-color-legend-item__color__path{stroke:#dcdcdc;stroke-width:2px}.rv-discrete-color-legend-item__title{margin-left:10px}.rv-discrete-color-legend-item.disabled{color:#b8b8b8}.rv-discrete-color-legend-item.clickable{cursor:pointer}.rv-discrete-color-legend-item.clickable:hover{background:#f9f9f9}.rv-search-wrapper{display:flex;flex-direction:column}.rv-search-wrapper__form{flex:0}.rv-search-wrapper__form__input{width:100%;color:#a6a6a5;border:1px solid #e5e5e4;padding:7px 10px;font-size:12px;box-sizing:border-box;border-radius:2px;margin:0 0 9px;outline:0}.rv-search-wrapper__contents{flex:1;overflow:auto}.rv-continuous-color-legend{font-size:12px}.rv-continuous-color-legend .rv-gradient{height:4px;border-radius:2px;margin-bottom:5px}.rv-continuous-size-legend{font-size:12px}.rv-continuous-size-legend .rv-bubbles{text-align:justify;overflow:hidden;margin-bottom:5px;width:100%}.rv-continuous-size-legend .rv-bubble{background:#d8d9dc;display:inline-block;vertical-align:bottom}.rv-continuous-size-legend .rv-spacer{display:inline-block;font-size:0;line-height:0;width:100%}.rv-legend-titles{height:16px;position:relative}.rv-legend-titles__left,.rv-legend-titles__right,.rv-legend-titles__center{position:absolute;white-space:nowrap;overflow:hidden}.rv-legend-titles__center{display:block;text-align:center;width:100%}.rv-legend-titles__right{right:0}.rv-radial-chart .rv-xy-plot__series--label{pointer-events:none}<br /><br />/*]]&gt;*/</style></svg>