<svg viewBox="0 0 1152.1875 400" xmlns="http://www.w3.org/2000/svg"><g><g><g><g><g><line x1="60" y1="378" x2="55" y2="378" style="visibility: inherit;" fill="rgb(0, 0, 0)" stroke="rgb(204, 204, 204)" stroke-width="1px"></line><line x1="60" y1="336" x2="55" y2="336" style="visibility: inherit;" fill="rgb(0, 0, 0)" stroke="rgb(204, 204, 204)" stroke-width="1px"></line><line x1="60" y1="294" x2="55" y2="294" style="visibility: inherit;" fill="rgb(0, 0, 0)" stroke="rgb(204, 204, 204)" stroke-width="1px"></line><line x1="60" y1="252.00000000000003" x2="55" y2="252.00000000000003" style="visibility: inherit;" fill="rgb(0, 0, 0)" stroke="rgb(204, 204, 204)" stroke-width="1px"></line><line x1="60" y1="210" x2="55" y2="210" style="visibility: inherit;" fill="rgb(0, 0, 0)" stroke="rgb(204, 204, 204)" stroke-width="1px"></line><line x1="60" y1="168" x2="55" y2="168" style="visibility: inherit;" fill="rgb(0, 0, 0)" stroke="rgb(204, 204, 204)" stroke-width="1px"></line><line x1="60" y1="125.99999999999997" x2="55" y2="125.99999999999997" style="visibility: inherit;" fill="rgb(0, 0, 0)" stroke="rgb(204, 204, 204)" stroke-width="1px"></line><line x1="60" y1="84.00000000000004" x2="55" y2="84.00000000000004" style="visibility: inherit;" fill="rgb(0, 0, 0)" stroke="rgb(204, 204, 204)" stroke-width="1px"></line><line x1="60" y1="41.99999999999998" x2="55" y2="41.99999999999998" style="visibility: inherit;" fill="rgb(0, 0, 0)" stroke="rgb(204, 204, 204)" stroke-width="1px"></line><line x1="60" y1="0" x2="55" y2="0" style="visibility: inherit;" fill="rgb(0, 0, 0)" stroke="rgb(204, 204, 204)" stroke-width="1px"></line></g><g transform="translate(50, 0)"><text x="0" y="378" dx="0em" dy="0.3em" style="text-anchor: end; visibility: hidden; font-family: Roboto, sans-serif; font-size: 12px; font-weight: 200;" fill="rgb(50, 49, 63)" stroke="none" stroke-width="1px">-5e-3</text><text x="0" y="336" dx="0em" dy="0.3em" style="text-anchor: end; visibility: inherit; font-family: Roboto, sans-serif; font-size: 12px; font-weight: 200;" fill="rgb(50, 49, 63)" stroke="none" stroke-width="1px">0</text><text x="0" y="294" dx="0em" dy="0.3em" style="text-anchor: end; visibility: inherit; font-family: Roboto, sans-serif; font-size: 12px; font-weight: 200;" fill="rgb(50, 49, 63)" stroke="none" stroke-width="1px">5e-3</text><text x="0" y="252.00000000000003" dx="0em" dy="0.3em" style="text-anchor: end; visibility: inherit; font-family: Roboto, sans-serif; font-size: 12px; font-weight: 200;" fill="rgb(50, 49, 63)" stroke="none" stroke-width="1px">0.01</text><text x="0" y="210" dx="0em" dy="0.3em" style="text-anchor: end; visibility: inherit; font-family: Roboto, sans-serif; font-size: 12px; font-weight: 200;" fill="rgb(50, 49, 63)" stroke="none" stroke-width="1px">0.015</text><text x="0" y="168" dx="0em" dy="0.3em" style="text-anchor: end; visibility: inherit; font-family: Roboto, sans-serif; font-size: 12px; font-weight: 200;" fill="rgb(50, 49, 63)" stroke="none" stroke-width="1px">0.02</text><text x="0" y="125.99999999999997" dx="0em" dy="0.3em" style="text-anchor: end; visibility: inherit; font-family: Roboto, sans-serif; font-size: 12px; font-weight: 200;" fill="rgb(50, 49, 63)" stroke="none" stroke-width="1px">0.025</text><text x="0" y="84.00000000000004" dx="0em" dy="0.3em" style="text-anchor: end; visibility: inherit; font-family: Roboto, sans-serif; font-size: 12px; font-weight: 200;" fill="rgb(50, 49, 63)" stroke="none" stroke-width="1px">0.03</text><text x="0" y="41.99999999999998" dx="0em" dy="0.3em" style="text-anchor: end; visibility: inherit; font-family: Roboto, sans-serif; font-size: 12px; font-weight: 200;" fill="rgb(50, 49, 63)" stroke="none" stroke-width="1px">0.035</text><text x="0" y="0" dx="0em" dy="0.3em" style="text-anchor: end; visibility: hidden; font-family: Roboto, sans-serif; font-size: 12px; font-weight: 200;" fill="rgb(50, 49, 63)" stroke="none" stroke-width="1px">0.04</text></g><line x1="60" y1="0" x2="60" y2="378" fill="rgb(0, 0, 0)" stroke="rgb(204, 204, 204)" stroke-width="1px"></line></g></g><g transform="translate(60, 0)" clip-path="url(#clip_0)"><clipPath id="clip_0"><rect width="1092" height="377"></rect></clipPath><g><g><g><line x1="0" y1="0" x2="0" y2="378" fill="rgb(0, 0, 0)" stroke="rgb(60, 60, 60)" stroke-width="1px" opacity="0.25"></line><line x1="91.01583333333333" y1="0" x2="91.01583333333333" y2="378" fill="rgb(0, 0, 0)" stroke="rgb(60, 60, 60)" stroke-width="1px" opacity="0.25"></line><line x1="182.03166666666667" y1="0" x2="182.03166666666667" y2="378" fill="rgb(0, 0, 0)" stroke="rgb(60, 60, 60)" stroke-width="1px" opacity="0.25"></line><line x1="273.0475" y1="0" x2="273.0475" y2="378" fill="rgb(0, 0, 0)" stroke="rgb(60, 60, 60)" stroke-width="1px" opacity="0.25"></line><line x1="364.06333333333333" y1="0" x2="364.06333333333333" y2="378" fill="rgb(0, 0, 0)" stroke="rgb(60, 60, 60)" stroke-width="1px" opacity="0.25"></line><line x1="455.0791666666667" y1="0" x2="455.0791666666667" y2="378" fill="rgb(0, 0, 0)" stroke="rgb(60, 60, 60)" stroke-width="1px" opacity="0.25"></line><line x1="546.095" y1="0" x2="546.095" y2="378" fill="rgb(0, 0, 0)" stroke="rgb(60, 60, 60)" stroke-width="1px" opacity="0.25"></line><line x1="637.1108333333334" y1="0" x2="637.1108333333334" y2="378" fill="rgb(0, 0, 0)" stroke="rgb(60, 60, 60)" stroke-width="1px" opacity="0.25"></line><line x1="728.1266666666667" y1="0" x2="728.1266666666667" y2="378" fill="rgb(0, 0, 0)" stroke="rgb(60, 60, 60)" stroke-width="1px" opacity="0.25"></line><line x1="819.1425" y1="0" x2="819.1425" y2="378" fill="rgb(0, 0, 0)" stroke="rgb(60, 60, 60)" stroke-width="1px" opacity="0.25"></line><line x1="910.1583333333334" y1="0" x2="910.1583333333334" y2="378" fill="rgb(0, 0, 0)" stroke="rgb(60, 60, 60)" stroke-width="1px" opacity="0.25"></line><line x1="1001.1741666666667" y1="0" x2="1001.1741666666667" y2="378" fill="rgb(0, 0, 0)" stroke="rgb(60, 60, 60)" stroke-width="1px" opacity="0.25"></line><line x1="1092.19" y1="0" x2="1092.19" y2="378" fill="rgb(0, 0, 0)" stroke="rgb(60, 60, 60)" stroke-width="1px" opacity="0.25"></line></g><g><line x1="0" y1="378" x2="1092.19" y2="378" fill="rgb(0, 0, 0)" stroke="rgb(60, 60, 60)" stroke-width="1px" opacity="0.25"></line><line x1="0" y1="336" x2="1092.19" y2="336" fill="rgb(0, 0, 0)" stroke="rgb(60, 60, 60)" stroke-width="1px" opacity="0.25"></line><line x1="0" y1="294" x2="1092.19" y2="294" fill="rgb(0, 0, 0)" stroke="rgb(60, 60, 60)" stroke-width="1px" opacity="0.25"></line><line x1="0" y1="252.00000000000003" x2="1092.19" y2="252.00000000000003" fill="rgb(0, 0, 0)" stroke="rgb(60, 60, 60)" stroke-width="1px" opacity="0.25"></line><line x1="0" y1="210" x2="1092.19" y2="210" fill="rgb(0, 0, 0)" stroke="rgb(60, 60, 60)" stroke-width="1px" opacity="0.25"></line><line x1="0" y1="168" x2="1092.19" y2="168" fill="rgb(0, 0, 0)" stroke="rgb(60, 60, 60)" stroke-width="1px" opacity="0.25"></line><line x1="0" y1="125.99999999999997" x2="1092.19" y2="125.99999999999997" fill="rgb(0, 0, 0)" stroke="rgb(60, 60, 60)" stroke-width="1px" opacity="0.25"></line><line x1="0" y1="84.00000000000004" x2="1092.19" y2="84.00000000000004" fill="rgb(0, 0, 0)" stroke="rgb(60, 60, 60)" stroke-width="1px" opacity="0.25"></line><line x1="0" y1="41.99999999999998" x2="1092.19" y2="41.99999999999998" fill="rgb(0, 0, 0)" stroke="rgb(60, 60, 60)" stroke-width="1px" opacity="0.25"></line><line x1="0" y1="0" x2="1092.19" y2="0" fill="rgb(0, 0, 0)" stroke="rgb(60, 60, 60)" stroke-width="1px" opacity="0.25"></line></g></g></g><g><g><line x1="0" y1="336" x2="1092.19" y2="336" fill="rgb(0, 0, 0)" stroke="rgb(153, 153, 153)" stroke-width="1.5px"></line></g></g><g><g><line x1="91.01583333333333" y1="0" x2="91.01583333333333" y2="378" fill="rgb(0, 0, 0)" stroke="rgb(153, 153, 153)" stroke-width="1.5px"></line></g></g><g><g><g><g><g><path stroke="rgb(204, 51, 17)" stroke-width="2px" d="M127.42216666666667,-0.9198024272918981L131.97295833333334,51.53999930620194L136.52375,93.47959613800049L141.07454166666668,131.11834457516667L145.62533333333334,160.7957020998001L150.176125,184.8614335656166L154.72691666666668,208.4205248057842L159.27770833333335,226.16931429505345L163.8285,239.21034416556358L168.3792916666667,254.4495974332094L172.93008333333333,264.5724353045225L177.48087500000003,272.6706876084208L182.03166666666667,282.3295642286539L186.58245833333334,288.13219933211803L191.13325,294.54845959693193L195.68404166666667,296.89387871325016L200.23483333333334,301.64022190868855L204.785625,304.7694266438484L209.33641666666668,309.7478971481323L213.88720833333335,311.86718145757914L218.43800000000002,310.3395706638694L222.98879166666669,315.3961353600025L227.53958333333335,317.39475602656603L232.090375,317.15066522732377L236.6411666666667,319.829693030566L241.19195833333333,319.95265275612473L245.74275000000003,322.16252769716084L250.29354166666667,323.73329076357186L254.84433333333334,322.4944045431912L259.395125,322.923345644027L263.9459166666667,322.7759377229959L268.49670833333334,325.82228985987604L273.0475,325.23466382548213L277.5982916666667,324.0994445644319L282.14908333333335,323.49800878576934L286.699875,319.97212447598577L291.2506666666667,325.9541121907532L295.8014583333333,327.05279850773513L300.35225,326.67652160301805L304.9030416666667,324.1914120633155L309.45383333333336,324.87560656294227L314.004625,325.95394594967365L318.5554166666667,327.5384825784713L323.10620833333337,326.608217054978L327.657,325.57261531613767L332.20779166666665,327.64928128011525L336.7585833333334,326.0731652509421L341.30937500000005,324.7837886810303L345.86016666666666,325.5847861189395L350.4109583333334,327.8160284170881L354.96175000000005,326.93619701452553L359.51254166666666,327.64788094349205L364.06333333333333,325.16453355923295L368.61412500000006,326.61597562395036L373.16491666666667,322.47800339385867L377.71570833333334,327.8452232843265L382.2665,327.42551785334945L386.81729166666673,328.31195636093616L391.36808333333335,327.86771081294864L395.918875,326.6423228792846L400.4696666666667,328.70852396730334L405.02045833333335,327.0499225370586L409.57125,328.2452144790441L414.1220416666667,327.3958760909736L418.67283333333336,326.6898560933769L423.223625,328.4711894011125L427.7744166666667,323.7925459295511L432.3252083333333,324.3190001361072L436.87600000000003,326.77228819951415L441.4267916666667,328.99139440990984L445.97758333333337,328.7959281485528L450.528375,323.9443572834134L455.0791666666667,328.215121909976L459.6299583333334,328.0573659706861L464.18075,325.71264800056815L468.73154166666666,328.8617488592863L473.2823333333334,327.96633039973676L477.833125,328.57500988896936L482.38391666666666,326.60980416834354L486.9347083333334,326.06861611269414L491.48550000000006,329.16184187773615L496.03629166666667,328.3025153344497L500.58708333333334,328.0323241967708L505.13787500000007,329.3006111299619L509.6886666666667,328.6240578526631L514.2394583333333,328.6520518725738L518.79025,329.1305533507839L523.3410416666667,327.9017017353326L527.8918333333334,325.42670160904527L532.442625,328.38289485219866L536.9934166666667,326.83167244680226L541.5442083333334,328.85808911081403L546.095,327.16341727785766L550.6457916666667,326.8382604829967L555.1965833333334,327.2854372523725L559.747375,329.20095498114824L564.2981666666667,322.69644026085734L568.8489583333334,324.7692171614617L573.39975,327.99479282833636L577.9505416666667,329.1564072612673L582.5013333333334,329.28578975982964L587.052125,328.81716397963464L591.6029166666666,328.87767035420984L596.1537083333333,328.64460182748735L600.7045,327.05443451553583L605.2552916666667,329.0200485046953L609.8060833333334,329.1209353264421L614.3568750000001,327.70065172947943L618.9076666666667,329.74283195938915L623.4584583333333,328.54366806708276L628.00925,326.7496500760317L632.5600416666667,328.14220808353275L637.1108333333334,327.90054391510785L641.6616250000001,329.03263588808477L646.2124166666667,328.42859745863825L650.7632083333334,329.1679712841287L655.314,328.29010494891554L659.8647916666666,328.4072560155764L664.4155833333333,328.9473009193316L668.9663750000001,324.40253725647926L673.5171666666668,326.4607837088406L678.0679583333334,329.4863899368793L682.6187500000001,329.4657946228981L687.1695416666666,328.8341870661825L691.7203333333333,328.8382624173537L696.271125,329.0157819762826L700.8219166666668,327.8142031878233L705.3727083333334,328.73678788449615L709.9235000000001,329.446046160534L714.4742916666667,329.3691244572401L719.0250833333333,329.0050745839253L723.575875,328.70890729967505L728.1266666666667,329.04461795836687L732.6774583333333,326.9524964634329L737.2282500000001,328.390475445427L741.7790416666668,328.8534514736384L746.3298333333333,328.2244754154235L750.880625,329.05943395011127L755.4314166666667,328.21388096921146L759.9822083333333,327.36383263394237L764.533,329.45663767307997L769.0837916666668,326.6680648215115L773.6345833333335,328.77327437885106L778.185375,327.5424332488328L782.7361666666667,328.4785064533353L787.2869583333334,329.17199871875346L791.83775,328.9958394030109L796.3885416666667,328.65774954110384L800.9393333333334,328.8665718063712L805.490125,329.88133864849806L810.0409166666667,328.55486098118126L814.5917083333334,329.8367053633556L819.1425,328.3473246395588L823.6932916666667,328.75541421957314L828.2440833333334,328.3234807793051L832.794875,328.7309181075543L837.3456666666667,326.5873528216034L841.8964583333334,329.34109278861433L846.44725,329.50657160393894L850.9980416666667,327.51625907979906L855.5488333333334,325.7759917192161L860.0996250000001,326.30190417543054L864.6504166666666,326.61009557917714L869.2012083333333,328.7365659037605L873.7520000000001,328.5973526900634L878.3027916666667,328.6439094822854L882.8535833333334,329.55430137366056L887.4043750000001,328.6222497364506L891.9551666666667,329.3558241929859L896.5059583333333,328.96997864730656L901.05675,325.7542532533407L905.6075416666667,329.04216688033193L910.1583333333334,328.739049741067L914.7091250000001,328.62084402143955L919.2599166666668,329.72059183660895L923.8107083333334,329.2339675258845L928.3615,326.85478582419455L932.9122916666666,329.26071278192103L937.4630833333333,328.4222685629502L942.0138750000001,328.6354326540604L946.5646666666668,329.2011476252228L951.1154583333334,328.1915733721107L955.66625,329.1991321966052L960.2170416666667,329.5562038561329L964.7678333333333,329.40819844510406L969.318625,325.4017771817744L973.8694166666668,328.758521460928L978.4202083333334,327.8963707750663L982.9710000000001,329.15542154945433L987.5217916666667,326.189765766263L992.0725833333333,327.42608307302L996.623375,329.81436109542847" style="fill: none;" fill="none"></path></g><g><path stroke="rgb(0, 119, 187)" stroke-width="2px" d="M127.42216666666667,-32.15907508134839L131.97295833333334,26.651527047157312L136.52375,74.95287662744525L141.07454166666668,114.40275317430499L145.62533333333334,147.38107180595398L150.176125,174.5026976466179L154.72691666666668,197.9020566344261L159.27770833333335,217.96878656744954L163.8285,233.58768752217293L168.3792916666667,248.230733782053L172.93008333333333,260.169659614563L177.48087500000003,270.35242250561714L182.03166666666667,278.4670798704028L186.58245833333334,286.3598308190703L191.13325,292.26298896968365L195.68404166666667,296.39076279848814L200.23483333333334,300.50147442519665L204.785625,302.974687948823L209.33641666666668,306.4220331273973L213.88720833333335,310.90827748551965L218.43800000000002,310.75018417462707L222.98879166666669,313.5846063159406L227.53958333333335,317.01699175313115L232.090375,317.48628640919924L236.6411666666667,318.31269819661975L241.19195833333333,320.4831652007997L245.74275000000003,320.83411967754364L250.29354166666667,322.52878222055733L254.84433333333334,323.7650183625519L259.395125,324.5251156054437L263.9459166666667,324.9172929804772L268.49670833333334,325.33189725503325L273.0475,325.1905923373997L277.5982916666667,324.67924553342164L282.14908333333335,321.31043459661305L286.699875,324.03107058629394L291.2506666666667,323.10895674303174L295.8014583333333,326.10663349181414L300.35225,325.137011859566L304.9030416666667,326.96708558499813L309.45383333333336,326.7045645173639L314.004625,327.10952778719366L318.5554166666667,327.11744672991335L323.10620833333337,326.2113086543977L327.657,325.9223171174526L332.20779166666665,327.1938276607543L336.7585833333334,327.68411367572844L341.30937500000005,327.1702302284539L345.86016666666666,327.0711622796953L350.4109583333334,327.29521613940597L354.96175000000005,327.721186414361L359.51254166666666,326.9723016433418L364.06333333333333,326.81287644803524L368.61412500000006,325.6910366602242L373.16491666666667,325.0254416037351L377.71570833333334,325.3070979975164L382.2665,328.2565051820129L386.81729166666673,328.1450493391603L391.36808333333335,327.4648055098951L395.918875,327.16148790344596L400.4696666666667,328.241257452406L405.02045833333335,328.62559020426124L409.57125,327.5578838903457L414.1220416666667,327.89207979943603L418.67283333333336,327.55711038038135L423.223625,328.3382170731202L427.7744166666667,328.92830494232476L432.3252083333333,326.12399394996464L436.87600000000003,325.4203335978091L441.4267916666667,327.4249702356756L445.97758333333337,329.08709842152894L450.528375,326.71670500561595L455.0791666666667,326.4364949092269L459.6299583333334,327.8088067090139L464.18075,327.8701447779313L468.73154166666666,328.7134515484795L473.2823333333334,329.3282105717808L477.833125,328.88346874527633L482.38391666666666,327.83578714728355L486.9347083333334,326.6361876055598L491.48550000000006,328.94513636268675L496.03629166666667,328.99557390622795L500.58708333333334,328.9359965259209L505.13787500000007,329.38842015713453L509.6886666666667,328.7590064937249L514.2394583333333,329.0410007480532L518.79025,329.3472730452195L523.3410416666667,328.79922363348305L527.8918333333334,328.05004011746496L532.442625,328.29088774882257L536.9934166666667,327.9091116869822L541.5442083333334,328.0090157305822L546.095,327.900566406548L550.6457916666667,328.0374018838629L555.1965833333334,327.6005540639162L559.747375,329.4557976666838L564.2981666666667,329.040533317253L568.8489583333334,324.53737050667405L573.39975,327.73970371484756L577.9505416666667,328.78809330426157L582.5013333333334,328.776170396246L587.052125,328.4873490119353L591.6029166666666,329.20825394243L596.1537083333333,328.3325766110793L600.7045,328.71391849033535L605.2552916666667,328.79508960898966L609.8060833333334,329.0674277013168L614.3568750000001,328.74994879961014L618.9076666666667,329.3212587609887L623.4584583333333,329.03404747042805L628.00925,327.93222555331886L632.5600416666667,327.87731710262597L637.1108333333334,328.1297326683998L641.6616250000001,328.690154328011L646.2124166666667,328.4251137301326L650.7632083333334,328.1976812649518L655.314,329.3705277275294L659.8647916666666,329.0020749103278L664.4155833333333,328.8912918549031L668.9663750000001,327.7074441444129L673.5171666666668,327.72724443487823L678.0679583333334,328.48036053031683L682.6187500000001,329.6737382551655L687.1695416666666,329.37496294174343L691.7203333333333,329.2286996394396L696.271125,329.5914816800505L700.8219166666668,329.53166765067726L705.3727083333334,329.23982018977404L709.9235000000001,328.9188184440136L714.4742916666667,329.1318250950426L719.0250833333333,328.8227076306939L723.575875,328.54010072909296L728.1266666666667,328.6909258821979L732.6774583333333,329.2526725810021L737.2282500000001,327.4471829775721L741.7790416666668,328.5048219272867L746.3298333333333,328.78362044133246L750.880625,329.25503369327635L755.4314166666667,328.84286925103515L759.9822083333333,327.89299216959625L764.533,329.5881001409143L769.0837916666668,329.2491101324558L773.6345833333335,326.75838066637516L778.185375,328.7781110163778L782.7361666666667,329.002675822936L787.2869583333334,329.2861652690917L791.83775,328.2754146158695L796.3885416666667,328.0819461811334L800.9393333333334,329.2528427336365L805.490125,329.49029660224915L810.0409166666667,329.29301977995783L814.5917083333334,329.54377831332386L819.1425,329.7524979002774L823.6932916666667,328.71014383994043L828.2440833333334,328.58992415852845L832.794875,327.26618849113584L837.3456666666667,329.3077873662114L841.8964583333334,328.45527426246554L846.44725,328.31422995217144L850.9980416666667,328.3194103175774L855.5488333333334,328.12519673164934L860.0996250000001,326.7782885245979L864.6504166666666,327.1573289427906L869.2012083333333,328.1396538382396L873.7520000000001,329.0923100793734L878.3027916666667,328.4786379793659L882.8535833333334,329.3662269730121L887.4043750000001,329.74351794831455L891.9551666666667,329.6733309645206L896.5059583333333,328.8856142330915L901.05675,327.65872083976865L905.6075416666667,329.2688840199262L910.1583333333334,330.09906703513116L914.7091250000001,328.90021508932114L919.2599166666668,329.11240618117154L923.8107083333334,328.896167607978L928.3615,328.35336505807936L932.9122916666666,329.89891375321895L937.4630833333333,329.03028993308544L942.0138750000001,328.3124741530046L946.5646666666668,328.6095836330205L951.1154583333334,329.44731643795967L955.66625,329.2357849320397L960.2170416666667,330.20235897414386L964.7678333333333,329.39185596909374L969.318625,328.8313037613407L973.8694166666668,328.81180759426206L978.4202083333334,328.44935461319983L982.9710000000001,329.4704283485189L987.5217916666667,329.4017341118306L992.0725833333333,328.4835611600429L996.623375,328.789019853808" style="fill: none;" fill="none"></path></g></g></g></g></g></g><g transform="translate(60, 378)" clip-path="url(#clip_1)"><clipPath id="clip_1"><rect width="1092" height="21"></rect></clipPath><g><g><line x1="0" y1="0" x2="0" y2="5" style="visibility: inherit;" fill="rgb(0, 0, 0)" stroke="rgb(204, 204, 204)" stroke-width="1px"></line><line x1="91.01583333333333" y1="0" x2="91.01583333333333" y2="5" style="visibility: inherit;" fill="rgb(0, 0, 0)" stroke="rgb(204, 204, 204)" stroke-width="1px"></line><line x1="182.03166666666667" y1="0" x2="182.03166666666667" y2="5" style="visibility: inherit;" fill="rgb(0, 0, 0)" stroke="rgb(204, 204, 204)" stroke-width="1px"></line><line x1="273.0475" y1="0" x2="273.0475" y2="5" style="visibility: inherit;" fill="rgb(0, 0, 0)" stroke="rgb(204, 204, 204)" stroke-width="1px"></line><line x1="364.06333333333333" y1="0" x2="364.06333333333333" y2="5" style="visibility: inherit;" fill="rgb(0, 0, 0)" stroke="rgb(204, 204, 204)" stroke-width="1px"></line><line x1="455.0791666666667" y1="0" x2="455.0791666666667" y2="5" style="visibility: inherit;" fill="rgb(0, 0, 0)" stroke="rgb(204, 204, 204)" stroke-width="1px"></line><line x1="546.095" y1="0" x2="546.095" y2="5" style="visibility: inherit;" fill="rgb(0, 0, 0)" stroke="rgb(204, 204, 204)" stroke-width="1px"></line><line x1="637.1108333333334" y1="0" x2="637.1108333333334" y2="5" style="visibility: inherit;" fill="rgb(0, 0, 0)" stroke="rgb(204, 204, 204)" stroke-width="1px"></line><line x1="728.1266666666667" y1="0" x2="728.1266666666667" y2="5" style="visibility: inherit;" fill="rgb(0, 0, 0)" stroke="rgb(204, 204, 204)" stroke-width="1px"></line><line x1="819.1425" y1="0" x2="819.1425" y2="5" style="visibility: inherit;" fill="rgb(0, 0, 0)" stroke="rgb(204, 204, 204)" stroke-width="1px"></line><line x1="910.1583333333334" y1="0" x2="910.1583333333334" y2="5" style="visibility: inherit;" fill="rgb(0, 0, 0)" stroke="rgb(204, 204, 204)" stroke-width="1px"></line><line x1="1001.1741666666667" y1="0" x2="1001.1741666666667" y2="5" style="visibility: inherit;" fill="rgb(0, 0, 0)" stroke="rgb(204, 204, 204)" stroke-width="1px"></line><line x1="1092.19" y1="0" x2="1092.19" y2="5" style="visibility: inherit;" fill="rgb(0, 0, 0)" stroke="rgb(204, 204, 204)" stroke-width="1px"></line></g><g transform="translate(0, 8)"><text x="0" y="0" dx="0em" dy="0.95em" style="text-anchor: middle; visibility: hidden; font-family: Roboto, sans-serif; font-size: 12px; font-weight: 200;" fill="rgb(50, 49, 63)" stroke="none" stroke-width="1px">-20</text><text x="91.01583333333333" y="0" dx="0em" dy="0.95em" style="text-anchor: middle; visibility: inherit; font-family: Roboto, sans-serif; font-size: 12px; font-weight: 200;" fill="rgb(50, 49, 63)" stroke="none" stroke-width="1px">0</text><text x="182.03166666666667" y="0" dx="0em" dy="0.95em" style="text-anchor: middle; visibility: inherit; font-family: Roboto, sans-serif; font-size: 12px; font-weight: 200;" fill="rgb(50, 49, 63)" stroke="none" stroke-width="1px">20</text><text x="273.0475" y="0" dx="0em" dy="0.95em" style="text-anchor: middle; visibility: inherit; font-family: Roboto, sans-serif; font-size: 12px; font-weight: 200;" fill="rgb(50, 49, 63)" stroke="none" stroke-width="1px">40</text><text x="364.06333333333333" y="0" dx="0em" dy="0.95em" style="text-anchor: middle; visibility: inherit; font-family: Roboto, sans-serif; font-size: 12px; font-weight: 200;" fill="rgb(50, 49, 63)" stroke="none" stroke-width="1px">60</text><text x="455.0791666666667" y="0" dx="0em" dy="0.95em" style="text-anchor: middle; visibility: inherit; font-family: Roboto, sans-serif; font-size: 12px; font-weight: 200;" fill="rgb(50, 49, 63)" stroke="none" stroke-width="1px">80</text><text x="546.095" y="0" dx="0em" dy="0.95em" style="text-anchor: middle; visibility: inherit; font-family: Roboto, sans-serif; font-size: 12px; font-weight: 200;" fill="rgb(50, 49, 63)" stroke="none" stroke-width="1px">100</text><text x="637.1108333333334" y="0" dx="0em" dy="0.95em" style="text-anchor: middle; visibility: inherit; font-family: Roboto, sans-serif; font-size: 12px; font-weight: 200;" fill="rgb(50, 49, 63)" stroke="none" stroke-width="1px">120</text><text x="728.1266666666667" y="0" dx="0em" dy="0.95em" style="text-anchor: middle; visibility: inherit; font-family: Roboto, sans-serif; font-size: 12px; font-weight: 200;" fill="rgb(50, 49, 63)" stroke="none" stroke-width="1px">140</text><text x="819.1425" y="0" dx="0em" dy="0.95em" style="text-anchor: middle; visibility: inherit; font-family: Roboto, sans-serif; font-size: 12px; font-weight: 200;" fill="rgb(50, 49, 63)" stroke="none" stroke-width="1px">160</text><text x="910.1583333333334" y="0" dx="0em" dy="0.95em" style="text-anchor: middle; visibility: inherit; font-family: Roboto, sans-serif; font-size: 12px; font-weight: 200;" fill="rgb(50, 49, 63)" stroke="none" stroke-width="1px">180</text><text x="1001.1741666666667" y="0" dx="0em" dy="0.95em" style="text-anchor: middle; visibility: inherit; font-family: Roboto, sans-serif; font-size: 12px; font-weight: 200;" fill="rgb(50, 49, 63)" stroke="none" stroke-width="1px">200</text><text x="1092.19" y="0" dx="0em" dy="0.95em" style="text-anchor: middle; visibility: hidden; font-family: Roboto, sans-serif; font-size: 12px; font-weight: 200;" fill="rgb(50, 49, 63)" stroke="none" stroke-width="1px">220</text></g><line x1="0" y1="0" x2="1092.19" y2="0" fill="rgb(0, 0, 0)" stroke="rgb(204, 204, 204)" stroke-width="1px"></line></g></g></g></g></svg>